<svg width="12" height="13" viewBox="0 0 12 13" fill="none" xmlns="http://www.w3.org/2000/svg">
<path d="M2.11501 9.39597C2.42815 8.95423 2.66475 8.45367 2.80764 7.91456C2.82527 7.84836 2.80371 7.77814 2.75284 7.73392L1.39518 6.55363C1.32377 6.49155 1.314 6.38093 1.37341 6.30729L2.50305 4.90717C2.54537 4.85472 2.55428 4.7818 2.52532 4.71972C2.2901 4.21403 1.96939 3.76273 1.58364 3.38275C1.51043 3.31053 1.39395 3.32083 1.33365 3.40485C0.00157428 5.24255 0.231407 7.84341 1.86511 9.41899C1.93912 9.4902 2.05561 9.47991 2.1151 9.3969L2.11501 9.39597Z" stroke="#2E5F5C" stroke-width="0.5" stroke-miterlimit="10"/>
<path d="M10.2732 8.85139C9.88742 8.47142 9.56671 8.02011 9.33149 7.51442C9.30252 7.45234 9.31142 7.37942 9.35375 7.32697L10.4834 5.92685C10.5428 5.85321 10.533 5.74259 10.4616 5.68051L9.10395 4.50022C9.05309 4.456 9.03154 4.38578 9.04917 4.31958C9.19206 3.78047 9.42866 3.27991 9.74179 2.83817C9.8012 2.75423 9.91768 2.74394 9.99178 2.81608C11.6255 4.39166 11.8553 6.99252 10.5232 8.83022C10.4629 8.91331 10.3464 8.92361 10.2733 8.85232L10.2732 8.85139Z" stroke="#2E5F5C" stroke-width="0.5" stroke-miterlimit="10"/>
<path d="M2.74796 2.18084C3.17603 2.50836 3.66032 2.7569 4.1812 2.90853C4.24516 2.92724 4.31276 2.90534 4.35508 2.85288L5.48472 1.45276C5.54413 1.37912 5.65076 1.3697 5.72216 1.43178L7.07983 2.61207C7.1307 2.65629 7.20108 2.66599 7.26077 2.63636C7.74699 2.39572 8.1802 2.06609 8.5442 1.66857C8.61339 1.59313 8.60271 1.47228 8.52129 1.40922C6.74028 0.0162162 4.23326 0.237786 2.72414 1.92157C2.65593 1.99786 2.66661 2.1187 2.74706 2.18092L2.74796 2.18084Z" stroke="#2E5F5C" stroke-width="0.5" stroke-miterlimit="10"/>
<path d="M3.31275 10.568C3.67675 10.1705 4.10995 9.84087 4.59617 9.60023C4.65586 9.5706 4.72625 9.5803 4.77711 9.62452L6.13478 10.8048C6.20618 10.8669 6.31281 10.8575 6.37222 10.7838L7.50186 9.3837C7.54418 9.33125 7.61178 9.30935 7.67574 9.32806C8.19662 9.47969 8.68093 9.72823 9.109 10.0557C9.19034 10.1179 9.20102 10.2387 9.13191 10.3151C7.62279 11.9989 5.11578 12.2204 3.33477 10.8274C3.25424 10.7643 3.24356 10.6435 3.31185 10.5681L3.31275 10.568Z" stroke="#2E5F5C" stroke-width="0.5" stroke-miterlimit="10"/>
</svg>
