<svg width="113" height="113" viewBox="0 0 113 113" fill="none" xmlns="http://www.w3.org/2000/svg">
<path opacity="0.4" d="M57.142 60.6726C56.7675 60.6191 56.286 60.6191 55.858 60.6726C46.4421 60.3516 38.9521 52.6476 38.9521 43.178C38.9521 33.4946 46.7631 25.6301 56.5 25.6301C66.1834 25.6301 74.0478 33.4946 74.0478 43.178C73.9943 52.6476 66.5579 60.3516 57.142 60.6726Z" stroke="#919191" stroke-width="5" stroke-linecap="round" stroke-linejoin="round"/>
<path opacity="0.34" d="M92.554 95.983C83.0311 104.703 70.4052 110 56.4953 110C42.5853 110 29.9594 104.703 20.4365 95.983C20.9715 90.954 24.1815 86.032 29.9059 82.18C44.5648 72.4431 68.5327 72.4431 83.0846 82.18C88.809 86.032 92.019 90.954 92.554 95.983Z" stroke="#919191" stroke-width="5" stroke-linecap="round" stroke-linejoin="round"/>
<path d="M56.4995 109.999C86.0461 109.999 109.999 86.0466 109.999 56.4997C109.999 26.9526 86.0461 3 56.4995 3C26.9525 3 3 26.9526 3 56.4997C3 86.0466 26.9525 109.999 56.4995 109.999Z" stroke="#919191" stroke-width="5" stroke-linecap="round" stroke-linejoin="round"/>
</svg>
