<svg width="89" height="89" viewBox="0 0 89 89" fill="none" xmlns="http://www.w3.org/2000/svg">
<path d="M37.0801 74.9866C39.4482 74.8651 41.852 75.0717 44.2202 74.9866C43.9941 76.2992 44.5534 78.4868 44.2202 79.532C41.8758 78.0493 38.5081 77.5024 37.0801 74.9866Z" fill="#F7D194"/>
<path d="M32.6172 41.3465V38.6241C39.9715 38.5269 47.1234 39.7179 54.5134 39.5721C57.3099 39.5113 59.8447 38.454 62.4984 38.539C67.5084 38.697 67.3774 41.1277 63.2005 42.0514C61.3441 42.4646 52.9545 43.206 50.872 43.1938C45.2313 43.1817 38.4482 40.9697 32.629 41.3343L32.6172 41.3465Z" fill="#302D2E"/>
<path d="M13.886 48.6257C18.2891 47.8965 22.6089 49.5373 26.7739 49.5737C30.4272 49.6102 33.4618 48.6379 36.5915 48.5893C39.9831 48.5407 57.0241 49.197 58.2974 48.4313C58.8805 48.0788 59.0828 45.5266 60.7964 45.1742C62.284 44.8703 73.9342 48.7473 74.4935 49.5737C75.9572 51.7492 71.2566 54.3865 71.1733 55.4195C70.9948 57.6679 79.5154 62.7481 75.4336 67.2692C70.2808 72.9813 66.8774 61.8852 64.1404 61.4234C61.9746 61.0588 60.606 66.7344 57.0122 58.7253C44.3386 57.5099 29.8799 59.9528 17.4323 58.6159C15.445 58.3971 11.1133 57.2304 12.9698 54.982C13.0769 54.8483 14.969 54.9942 15.6473 54.982C27.238 54.6174 39.8045 56.9266 51.7523 55.8814C55.0248 55.5897 58.6782 55.4195 58.4521 51.3603H14.7548C14.6715 51.2509 13.0293 51.7735 12.8865 50.7526C12.7199 49.6223 13.8742 48.7594 13.8623 48.6257H13.886ZM61.1653 59.5274C67.52 55.8206 68.1269 62.7238 71.3994 64.9965C72.5657 65.8108 73.3987 65.8472 73.6367 64.5104C73.9223 62.9426 67.5795 57.9353 68.4006 54.7146C68.7219 53.4628 70.9472 52.1989 70.9472 51.7978C70.9472 50.3151 62.8671 47.9208 61.1534 48.6136V59.5274H61.1653Z" fill="#0C0D0D"/>
<path d="M12.9948 35.8895C12.9472 34.7471 11.8167 33.2036 12.0309 30.8823C12.2451 28.561 13.6969 27.6981 13.8873 26.7987C28.1437 17.1367 35.9026 43.9108 18.3142 39.0981C16.4935 38.5998 14.6489 36.8497 12.9948 35.8895ZM15.9222 34.7471C17.7192 36.6795 24.7879 38.5147 25.5138 34.504C27.513 23.4201 9.38907 27.7467 15.9222 34.7471Z" fill="#0C0D0D"/>
<path d="M32.6172 35.8891V33.1667C36.5323 32.9358 66.4255 30.3228 66.4969 34.5279C66.5445 37.1652 60.1303 35.0383 58.9284 34.9897C50.0628 34.6372 41.4709 36.0471 32.6172 35.8891Z" fill="#0C0D0D"/>
<path d="M32.6172 28.6219V25.8995C35.5565 26.5072 62.0343 23.1528 62.0343 27.2607C62.0343 29.8615 54.6562 28.0142 53.4305 28.0628C46.5284 28.2937 39.5669 29.0594 32.6172 28.6219Z" fill="#302D2E"/>
<path d="M15.6719 17.7081C14.2439 20.6128 14.4819 24.04 13.8869 26.7989C13.6965 27.6982 12.2328 28.6098 12.0305 30.8825C11.8282 33.1552 12.9468 34.7473 12.9944 35.8897C13.161 40.2285 13.6132 44.3971 13.8869 48.6144C13.8869 48.7481 12.7445 49.6231 12.9111 50.7413C13.0539 51.7621 14.6961 51.2396 14.7794 51.3368C14.9698 51.5798 14.8389 54.2293 15.6719 54.9707C14.9936 54.995 13.1015 54.837 12.9944 54.9707C11.1379 57.2191 15.4696 58.3858 17.4569 58.6046C19.1943 64.4869 24.6328 67.7926 29.0477 71.3293C23.4189 71.0862 5.37831 73.1644 3.36719 66.1397L4.46198 20.3332C5.50919 16.4563 12.4232 17.8539 15.6601 17.6838L15.6719 17.7081Z" fill="#FEFEFE"/>
<path d="M15.6713 17.7075C38.2102 16.565 60.9632 15.9088 83.276 19.7128C83.8234 21.0375 84.6921 22.4352 85.0134 23.845C87.0841 32.7292 85.6917 53.2564 84.2518 62.6268C84.0614 63.8664 82.7524 69.7366 82.3597 70.2348C79.2181 74.124 36.6394 71.6811 29.0471 71.353C24.6203 67.8163 19.1937 64.5106 17.4563 58.6283C29.9039 59.9651 44.3506 57.5345 57.0362 58.7376C60.63 66.7589 61.9985 61.0711 64.1644 61.4357C66.9014 61.8975 70.3049 72.9937 75.4577 67.2815C79.5275 62.7604 71.007 57.6681 71.1974 55.4319C71.2807 54.3988 75.9812 51.7494 74.5175 49.5861C73.9582 48.7596 62.3079 44.8827 60.8204 45.1865C59.1068 45.539 58.9045 48.079 58.3214 48.4436C57.0481 49.2093 40.0071 48.5409 36.6156 48.6016C33.4858 48.6503 30.4513 49.6347 26.798 49.5861C22.6329 49.5375 18.3012 47.8967 13.9101 48.6381C13.6364 44.4208 13.1842 40.2522 13.0176 35.9134C14.6717 36.8735 16.5163 38.6236 18.337 39.1219C35.9135 43.9347 28.1665 17.1484 13.9101 26.8226C14.5051 24.0637 14.2671 20.6365 15.6951 17.7318L15.6713 17.7075ZM32.6172 28.6213C39.5668 29.0588 46.5284 28.2932 53.4305 28.0622C54.6562 28.0258 62.0462 29.8731 62.0343 27.2601C62.0343 23.1522 35.5446 26.5066 32.6172 25.8989V28.6213ZM32.6172 35.8891C41.4709 36.0471 50.0627 34.6373 58.9283 34.9897C60.1422 35.0383 66.5444 37.1652 66.4968 34.5279C66.4254 30.3349 36.5323 32.9358 32.6172 33.1667V35.8891ZM32.6172 41.346C38.4482 40.9692 45.2193 43.1812 50.86 43.2055C52.9425 43.2055 61.3441 42.4763 63.1886 42.0631C67.3775 41.1272 67.4964 38.7087 62.4865 38.5507C59.8327 38.4656 57.298 39.523 54.5015 39.5837C47.1115 39.7296 39.9595 38.5385 32.6052 38.6358V41.3582L32.6172 41.346Z" fill="#F7D194"/>
<path d="M17.4562 14.0735C32.3909 13.2228 67.2464 12.372 80.7769 15.8966C87.4886 17.6467 88.3454 20.7701 88.8333 27.2236C89.4283 35.014 88.393 64.7171 85.1086 70.7817C84.1684 72.5197 82.1216 73.3704 81.6575 74.0875L47.7659 74.9868V79.5444C48.2419 80.0427 61.0941 78.0373 52.2285 83.1783C45.3859 81.5011 36.5678 85.5117 28.7613 83.0081C24.6082 81.6712 28.333 77.2717 32.6051 80.4437C33.3667 74.4521 32.3314 74.4277 26.8454 74.0388C19.0984 73.4919 1.79567 76.8585 0.486657 65.4585C-0.572455 56.2583 1.04595 46.4018 1.43865 37.2867C1.68856 31.5624 -0.846173 17.0511 5.6037 15.1552C7.24592 14.6812 14.9929 14.1951 17.4562 14.0614V14.0735ZM15.6712 17.7074C12.4224 17.8776 5.52039 16.4799 4.47318 20.3569L3.37838 66.1634C5.38951 73.1759 23.4301 71.1098 29.0588 71.3529C36.6511 71.6689 79.2299 74.1239 82.3715 70.2348C82.7761 69.7365 84.0732 63.8664 84.2636 62.6267C85.7035 53.2564 87.0959 32.7291 85.0252 23.8449C84.692 22.4351 83.8352 21.0375 83.2878 19.7127C60.975 15.9087 38.222 16.565 15.6831 17.7074H15.6712ZM37.0796 74.9868C36.4846 75.0111 35.8896 74.9382 35.2946 74.9868V80.4559C37.0558 80.0427 43.6128 81.4403 44.2078 79.5444C44.541 78.487 43.9936 76.2994 44.2078 74.999C41.8396 75.084 39.4358 74.8896 37.0677 74.999L37.0796 74.9868Z" fill="#0C0D0D"/>
<path d="M80.7894 15.8842C67.259 12.3718 32.4034 13.2226 17.4688 14.0612C21.0626 5.55373 25.5133 1.20278 34.8311 0.388497C40.6146 -0.12195 62.6298 -0.389326 67.1757 1.11771C72.2927 2.81919 79.4804 10.3787 80.7894 15.872V15.8842Z" fill="#F7D194"/>
<path d="M81.6689 74.0752C76.6828 81.8656 72.7914 90.9564 61.3197 87.9909C58.2852 87.2131 53.7988 83.5428 52.2399 83.166C61.1055 78.0251 48.2533 80.0304 47.7773 79.5321V74.9746L81.6689 74.0752Z" fill="#F7D194"/>
<path d="M14.7793 51.3486H58.4767C58.7028 55.4201 55.0494 55.5902 51.7769 55.8819C39.8291 56.9271 27.2625 54.6301 15.6718 54.9825C14.8388 54.2412 14.9697 51.5795 14.7793 51.3486Z" fill="#F7D194"/>
<path d="M61.166 59.528V48.6142C62.8677 47.9214 70.9479 50.3157 70.9479 51.7984C70.9479 52.1995 68.7226 53.4634 68.4012 54.7152C67.5801 57.9359 73.9229 62.9553 73.6373 64.5109C73.3993 65.8478 72.5663 65.8114 71.4001 64.9971C68.1276 62.7122 67.5207 55.809 61.166 59.528Z" fill="#F7D194"/>
<path d="M15.921 34.7466C9.39969 27.7461 27.5236 23.4317 25.5125 34.5035C24.7866 38.5141 17.7179 36.679 15.921 34.7466Z" fill="#F7D194"/>
</svg>
