<svg width="91" height="89" viewBox="0 0 91 89" fill="none" xmlns="http://www.w3.org/2000/svg">
<path d="M32.8015 27.7097L21.2227 26.3485C23.686 22.192 28.0772 19.579 31.909 16.7959L32.8015 27.7097Z" fill="#A0D19B"/>
<path d="M63.1223 13.1623C53.2451 12.8463 43.3085 13.0043 33.4314 12.4452C26.0057 17.0635 17.7113 22.1558 16.7593 31.8179C15.5693 43.8255 15.129 65.1063 16.7474 76.8101C11.916 72.9696 9.01232 68.5822 6.04918 63.1739C6.66799 62.3474 6.9536 61.0592 7.81041 59.9897C8.48872 59.1389 13.2488 56.8784 11.4042 54.9946C10.2618 53.84 4.95438 58.6042 4.27607 59.54C4.43077 56.3679 3.00276 53.4754 2.49105 50.4492C4.13327 50.4127 5.64459 49.5863 7.2868 49.6349C9.29793 49.6835 14.1056 52.5153 13.1893 48.1886C13.0346 47.4594 3.99046 45.8795 2.47914 47.7268C2.02693 43.2178 0.860718 39.7176 2.47914 35.0021C3.26455 36.3147 9.09564 42.7925 10.4999 41.3584L3.37165 29.5452C4.64496 18.1573 12.392 2.62519 24.542 0.668478C30.7896 -0.340262 36.335 1.09385 42.1661 1.36123C43.963 1.4463 45.9742 0.32818 48.3661 0.413255C50.758 0.498329 60.2781 2.89257 61.1707 4.71559C62.0632 6.53861 62.5867 10.9382 63.1223 13.1744V13.1623Z" fill="#A0D19B"/>
<path d="M63.1223 13.1624C69.3223 13.3568 73.5231 11.9713 74.6417 20.0656C76.6171 34.4431 76.4743 59.0904 74.606 73.5166C74.0467 77.8189 73.0947 87.6268 68.0014 88.6112C65.2763 89.1338 61.2659 88.5019 58.2195 88.6477C48.7708 89.0974 36.5136 89.3526 27.0887 87.6268C17.5329 85.8767 17.9494 85.585 16.7356 76.8102C15.1172 65.1064 15.5575 43.8256 16.7475 31.818C17.7114 22.1681 25.9939 17.0758 33.4196 12.4453C43.2967 13.0044 53.2333 12.8464 63.1104 13.1624H63.1223ZM64.0148 15.8847C54.2805 15.3378 44.3439 16.2858 34.5858 15.8847C38.0368 31.6964 33.8956 31.2711 20.3056 29.5088C19.5916 39.6813 19.5797 49.8051 19.4488 60.0141C19.3774 66.2488 18.7824 72.0096 19.4131 78.6211C19.544 80.0309 19.6035 82.4373 20.8887 83.2515C22.8047 84.4547 37.061 85.7673 40.3336 85.9375C44.4272 86.1441 67.5135 86.4965 69.1557 84.7829C72.1902 81.5987 71.7976 63.9032 71.9999 59.0418C72.4759 47.8363 73.2494 33.8962 72.0356 22.715C71.2858 15.7997 69.7626 16.225 64.003 15.8969L64.0148 15.8847ZM32.8008 27.7101L31.9083 16.7963C28.0764 19.5794 23.6853 22.1924 21.2219 26.3489L32.8008 27.7101Z" fill="#302D2E"/>
<path d="M88.9817 66.7958C86.8397 68.9956 84.4359 62.7366 83.6386 61.8007C83.1031 61.1688 76.3081 55.6875 79.6401 54.9826C83.1507 54.2413 90.3622 65.386 88.9817 66.7958Z" fill="#302D2E"/>
<path d="M88.0898 29.5334C89.387 30.8217 82.235 41.8449 78.7482 41.3466C78.1532 41.2616 76.8323 39.7667 78.2841 39.0739C80.6642 38.3569 85.7574 27.2243 88.0898 29.5334Z" fill="#302D2E"/>
<path d="M3.37209 29.5333L10.5003 41.3465C9.09608 42.7806 3.25309 36.3028 2.47958 34.9902C0.813559 32.1949 -1.07856 28.6461 3.37209 29.5333Z" fill="#0C0D0D"/>
<path d="M4.26432 59.528C4.94263 58.6043 10.262 53.828 11.3925 54.9826C13.249 56.8664 8.48887 59.1269 7.79866 59.9777C6.94185 61.0472 6.65627 62.3233 6.03747 63.1619C5.21636 64.28 3.40751 68.5945 1.58679 66.7958C0.837078 66.0544 3.55034 60.4881 4.25244 59.528H4.26432Z" fill="#0C0D0D"/>
<path d="M2.47975 47.715C3.99107 45.8555 13.0352 47.4476 13.1899 48.1768C14.1062 52.5035 9.29854 49.6717 7.28742 49.6231C5.6333 49.5866 4.12198 50.4131 2.49166 50.4374C2.20606 48.7359 2.55116 48.2497 2.49166 47.715H2.47975Z" fill="#0C0D0D"/>
<path d="M89.8751 50.437C89.4824 50.8381 86.3407 49.5741 85.0793 49.6106C83.8179 49.647 79.8671 51.1662 79.1769 50.437C79.0817 50.3398 79.0817 47.824 79.1769 47.7146C79.4982 47.3743 87.1737 46.5479 88.4114 46.9368C89.9465 47.4351 90.4106 49.8901 89.887 50.4249L89.8751 50.437Z" fill="#0C0D0D"/>
<path d="M64.0155 15.8848C67.1095 31.66 73.5237 62.5056 62.647 75.8622C58.1844 81.3435 34.9672 81.0275 27.9104 80.432C25.0068 80.1889 22.3531 78.7305 19.4257 78.6211C18.795 72.0096 19.39 66.261 19.4614 60.0141C19.5923 49.8052 19.5923 39.6813 20.3182 29.5088C33.9081 31.2711 38.0494 31.6965 34.5984 15.8848C44.3565 16.2858 54.2931 15.3379 64.0274 15.8848H64.0155ZM31.0164 38.6118C31.7661 39.4139 49.7829 38.0527 52.7222 38.0527C54.4954 38.0527 62.0519 40.9939 61.3379 37.2628C51.7107 32.4135 41.1196 36.8617 31.0164 35.8894V38.6118ZM64.8961 45.0167C63.1706 42.8291 35.7169 44.6399 31.0045 44.9924V47.7148C42.3572 47.8241 53.5791 45.5514 64.8961 47.7148C64.789 46.9612 65.0984 45.2962 64.8961 45.0167ZM65.8005 52.2602C54.1026 53.4391 42.7023 52.3939 31.0164 52.2602V54.9826C39.5131 54.6909 47.8908 56.5504 56.4351 55.8819C57.3871 55.809 68.4899 54.6544 65.8005 52.2602Z" fill="#A0D19B"/>
<path d="M65.7997 52.2598C68.4773 54.654 57.3744 55.8086 56.4343 55.8815C47.9019 56.5499 39.5242 54.6905 31.0156 54.9821V52.2598C42.7016 52.3935 54.1019 53.4387 65.7997 52.2598Z" fill="#0C0D0D"/>
<path d="M64.8955 45.0168C65.1097 45.2842 64.7884 46.9614 64.8955 47.7149C53.5666 45.5516 42.3566 47.8243 31.0039 47.7149V44.9925C35.7164 44.6401 63.1581 42.8292 64.8955 45.0168Z" fill="#0C0D0D"/>
<path d="M31.0156 38.6119V35.8895C41.1188 36.8618 51.7218 32.4136 61.3372 37.2629C62.0512 40.9819 54.4946 38.0529 52.7215 38.0529C49.7821 38.0529 31.7653 39.4141 31.0156 38.6119Z" fill="#0C0D0D"/>
</svg>
