<svg width="77" height="89" viewBox="0 0 77 89" fill="none" xmlns="http://www.w3.org/2000/svg">
<path d="M0.524229 65.8961C0.393327 55.6629 -0.582485 41.0544 0.524229 31.3438C1.99985 32.2917 1.41674 34.7953 1.42864 36.3267C1.51194 44.506 1.52384 52.7217 1.42864 60.901C1.40484 62.4445 1.99985 64.9481 0.524229 65.884V65.8961Z" fill="#0C0D0D"/>
<path d="M0.522956 31.3435C1.11796 26.1418 4.2953 26.5064 9.11486 26.0081C17.9329 25.0966 27.691 26.4092 36.628 25.9109C38.8057 26.871 48.6828 37.6512 48.6828 39.0731V59.5274C50.7059 59.8191 53.3596 57.7773 54.5496 57.6801C56.2632 57.5343 57.0367 58.9441 58.0363 59.1021C59.155 59.2722 60.7377 58.1055 61.892 58.7618C65.6405 60.8765 66.3664 76.992 68.2229 80.8082C67.9611 81.9506 56.9415 88.6593 55.3112 88.635C52.9074 88.5864 51.7769 82.6069 49.1112 81.3794C46.6717 86.2286 45.6721 87.8451 40.0909 88.5257C34.8192 89.1698 9.24576 89.3521 5.34251 87.7843C-1.96417 84.8675 0.594357 72.9084 0.499156 65.8959C1.97477 64.9479 1.39167 62.4443 1.40357 60.9129C1.49877 52.7336 1.48687 44.5179 1.40357 36.3386C1.39167 34.7951 1.97477 32.2915 0.499156 31.3556L0.522956 31.3435ZM36.1996 28.6211C34.9977 27.4058 6.53253 29.5448 2.30798 28.6211V82.7163C2.30798 86.0706 11.721 86.6176 14.3628 86.7999C19.9083 87.1888 40.0671 87.4805 44.2322 85.4387C45.5055 84.8188 47.3024 81.5009 46.8621 80.0911C46.5289 79.0216 28.9167 71.134 44.2322 69.5298C45.0414 68.837 32.7842 49.6953 46.9097 56.805V41.3458C46.9097 40.8475 40.1861 42.5855 37.58 39.4985C34.9739 36.4115 36.747 29.1559 36.2115 28.6211H36.1996ZM46.0053 39.5228C46.7907 38.8422 39.4721 29.8972 37.9965 29.5205C37.4491 36.9462 37.5562 40.6895 46.0053 39.5228ZM48.6828 61.3626C48.5638 61.4234 49.8847 63.3922 48.2425 64.0607C47.6951 64.0121 42.8399 51.7857 41.5546 58.1905C40.9477 61.2168 49.7062 72.8112 48.6828 74.0752C47.588 73.1515 38.8533 68.7641 40.7692 73.5039C41.8284 76.1169 47.588 77.5511 50.0275 79.5321C52.2648 81.3551 54.5853 86.8971 56.0966 86.6783C57.477 85.3779 64.9622 82.0965 65.4977 81.185C66.3307 79.763 63.677 61.9217 59.8452 60.4389C58.2386 67.5001 57.6793 59.3087 54.0617 59.5274V64.0607C51.3485 64.717 51.8364 59.7097 48.7066 61.3505L48.6828 61.3626Z" fill="#302D2E"/>
<path d="M51.3608 19.531C49.909 19.7983 46.0652 28.5489 44.2207 26.7988C45.2798 24.8542 50.1351 16.2495 51.7892 16.1158C53.6099 15.97 61.0713 25.948 60.274 26.7988L53.1458 20.4425V40.4471H51.3608V19.531Z" fill="#302D2E"/>
<path d="M65.6408 63.1614C65.4623 59.4425 69.2585 60.8644 71.2458 60.2446C74.3279 59.2845 73.6139 54.6297 74.9944 52.2598C79.0761 58.4702 71.7218 64.231 65.6408 63.1614Z" fill="#302D2E"/>
<path d="M76.3272 11.339C76.1249 11.5334 74.3875 11.2296 73.6616 11.339C74.2923 5.09207 72.5668 2.7829 66.5215 2.22384C67.0689 -0.911757 72.8167 1.65263 74.09 3.15966C74.9825 4.21701 76.7913 10.8893 76.3272 11.3268V11.339Z" fill="#302D2E"/>
<path d="M37.0813 0.4375C37.6763 3.58525 32.9519 2.38206 31.6905 4.48461L28.1681 11.3392C27.2399 5.10444 30.8456 0.510421 37.0813 0.4375Z" fill="#302D2E"/>
<path d="M76.327 13.1625C76.0414 16.4926 76.7435 20.3817 76.327 23.6267C76.1604 24.9514 75.6487 26.4463 74.542 24.9636C74.8276 21.6335 74.1255 17.7444 74.542 14.4994C74.7086 13.1747 75.2203 11.6798 76.327 13.1625Z" fill="#302D2E"/>
<path d="M63.8437 0.437981C65.2955 1.5561 63.8318 2.0787 62.5228 2.24885C59.6192 2.62561 56.1443 1.98147 53.1455 2.24885C51.6937 1.13073 53.1574 0.608129 54.4664 0.437981C57.37 0.0612224 60.8449 0.705357 63.8437 0.437981Z" fill="#302D2E"/>
<path d="M50.4687 0.437981C51.9205 1.5561 50.4568 2.0787 49.1478 2.24885C46.2442 2.62561 42.7693 1.98147 39.7705 2.24885C38.3187 1.13073 39.7824 0.608129 41.0914 0.437981C43.995 0.0612224 47.4699 0.705357 50.4687 0.437981Z" fill="#302D2E"/>
<path d="M76.3279 50.4373C75.2212 51.9078 74.7095 50.4251 74.5429 49.0882C74.174 46.1228 74.8047 42.574 74.5429 39.5234C77.8987 41.5288 75.7567 47.1315 76.316 50.4251L76.3279 50.4373Z" fill="#302D2E"/>
<path d="M76.3279 37.7127C75.2212 39.1832 74.7095 37.7005 74.5429 36.3636C74.174 33.3982 74.8047 29.8494 74.5429 26.7988C77.8987 28.8042 75.7567 34.4069 76.316 37.7005L76.3279 37.7127Z" fill="#302D2E"/>
<path d="M29.9536 14.9848C29.7275 17.7558 30.2987 20.94 29.9536 23.6381C29.787 24.9628 29.2752 26.4577 28.1685 24.975C28.3946 22.204 27.8234 19.0197 28.1685 16.3217C28.3351 14.9969 28.8468 13.5021 29.9536 14.9848Z" fill="#302D2E"/>
<path d="M36.2004 28.6217C36.7359 29.1686 35.058 36.5336 37.5689 39.4991C40.0798 42.4645 46.8986 40.8481 46.8986 41.3464V56.8056C32.7731 49.6958 45.0184 68.8376 44.2211 69.5303C28.9056 71.1346 46.5178 79.0344 46.851 80.0917C47.2913 81.4894 45.4944 84.8194 44.2211 85.4393C40.056 87.481 19.8972 87.1894 14.3517 86.8004C11.7218 86.6181 2.29688 86.0712 2.29688 82.7169V28.6217C6.52143 29.5454 34.9866 27.4063 36.1885 28.6217H36.2004ZM21.9321 33.1671H6.75943V34.9901H21.9202V33.1671H21.9321ZM36.2004 38.624H5.87882C5.80742 39.2195 7.05693 40.447 7.21163 40.447H34.8557C35.0104 40.447 36.2599 39.2195 36.1885 38.624H36.2004Z" fill="#80CDF1"/>
<path d="M48.6837 61.3633C51.8253 59.7226 51.3255 64.742 54.0268 64.0735V59.5403C57.6564 59.3215 58.2157 67.5008 59.8222 60.4518C63.6541 61.9345 66.3078 79.7758 65.4748 81.1978C64.9393 82.1093 57.4541 85.3907 56.0737 86.6912C54.5624 86.9099 52.2418 81.3558 50.0046 79.5449C47.577 77.5639 41.8054 76.1298 40.7463 73.5168C38.8304 68.7769 47.5651 73.1643 48.6599 74.088C49.6833 72.824 40.9248 61.2296 41.5317 58.2034C42.8169 51.7985 47.6722 64.0249 48.2196 64.0735C49.8737 63.4051 48.5409 61.4362 48.6599 61.3754L48.6837 61.3633Z" fill="#FEFEFE"/>
<path d="M46.006 39.5228C37.5569 40.7017 37.4498 36.9463 37.9972 29.5205C39.4728 29.8973 46.7914 38.8422 46.006 39.5228Z" fill="#80CDF1"/>
<path d="M36.1995 38.624C36.2709 39.2195 35.0214 40.447 34.8667 40.447H7.21076C7.05606 40.447 5.80654 39.2195 5.87794 38.624H36.1995Z" fill="#302D2E"/>
<path d="M21.9205 33.167H6.75977V34.99H21.9205V33.167Z" fill="#302D2E"/>
</svg>
