<svg width="499" height="555" viewBox="0 0 499 555" fill="none" xmlns="http://www.w3.org/2000/svg">
<path d="M419.497 29.0734C458.871 50.3276 486.248 86.3779 495.381 132.11C504.437 177.444 493.985 225.647 470.37 265.394C441.323 314.278 393.725 350.849 368.918 402.015C351.641 437.649 345.463 480.093 317.548 508.179C301.867 523.958 280.965 533.312 260.229 541.364C245.72 546.999 230.845 552.217 215.35 553.709C173.413 557.748 132.724 533.35 106.529 500.345C86.3119 474.872 73.2665 444.738 62.4901 414.293C53.3102 388.365 33.6532 371.161 21.7636 346.073C-3.25832 293.289 -5.64754 231.308 11.8663 175.876C34.9665 102.77 87.4148 58.0129 150.49 19.5258C173.848 5.27163 207.907 3.92506 234.464 2.00448C291.989 -2.15804 351.482 -0.1851 404.709 22.0276C409.807 24.1525 414.737 26.5062 419.497 29.0734Z" fill="#F3C623"/>
</svg>
