<svg width="40" height="40" viewBox="0 0 40 40" fill="none" xmlns="http://www.w3.org/2000/svg">
<rect width="40" height="40" rx="6" fill="#2E5F5C"/>
<path d="M19.7411 13.4483C23.5499 13.4483 26.6377 16.536 26.6377 20.3448V28.6207C26.6377 29.3825 26.0201 30 25.2584 30H14.2239C13.4621 30 12.8446 29.3825 12.8446 28.6207V20.3448C12.8446 16.536 15.9323 13.4483 19.7411 13.4483ZM19.7411 13.4483V10M14.9135 25.8621H24.5687M10.0859 21.0345V26.5517M29.3963 21.0345V26.5517M16.9825 23.1034C16.2207 23.1034 15.6032 22.4859 15.6032 21.7241C15.6032 20.9624 16.2207 20.3448 16.9825 20.3448C17.7443 20.3448 18.3618 20.9624 18.3618 21.7241C18.3618 22.4859 17.7443 23.1034 16.9825 23.1034ZM22.4997 23.1034C21.738 23.1034 21.1204 22.4859 21.1204 21.7241C21.1204 20.9624 21.738 20.3448 22.4997 20.3448C23.2615 20.3448 23.879 20.9624 23.879 21.7241C23.879 22.4859 23.2615 23.1034 22.4997 23.1034Z" stroke="white" stroke-width="2"/>
</svg>
