<svg width="50" height="50" viewBox="0 0 50 50" fill="none" xmlns="http://www.w3.org/2000/svg">
<circle cx="25" cy="25" r="25" fill="white"/>
<path d="M33.1516 19.3705H30.9338V15.4202C30.9401 11.8793 28.0608 9 24.52 9C20.9791 9 18.0998 11.8793 18.0998 15.4202V19.3705H15.8884C15.3969 19.3705 15 19.7675 15 20.2589V26.4208C15 31.3729 18.7992 35.4493 23.6316 35.8966V39.2233H21.6092C21.1177 39.2233 20.7208 39.6202 20.7208 40.1116C20.7208 40.6031 21.1177 41 21.6092 41H27.4308C27.9222 41 28.3192 40.6031 28.3192 40.1116C28.3192 39.6202 27.9222 39.2233 27.4308 39.2233H25.4083V35.9029C30.2408 35.4556 34.04 31.3729 34.04 26.4271V20.2652C34.0463 19.7675 33.643 19.3705 33.1516 19.3705ZM19.8829 24.6566H21.3005C21.7919 24.6566 22.1888 24.2597 22.1888 23.7683C22.1888 23.2768 21.7919 22.8799 21.3005 22.8799H19.8829V21.7836H21.3005C21.7919 21.7836 22.1888 21.3867 22.1888 20.8953C22.1888 20.4038 21.7919 20.0069 21.3005 20.0069H19.8829V18.9106H21.3005C21.7919 18.9106 22.1888 18.5137 22.1888 18.0222C22.1888 17.5308 21.7919 17.1339 21.3005 17.1339H19.8829V16.0376H21.3005C21.7919 16.0376 22.1888 15.6407 22.1888 15.1492C22.1888 14.6578 21.7919 14.2609 21.3005 14.2609H20.0404C20.5633 12.2699 22.3715 10.7893 24.5263 10.7893C26.681 10.7893 28.4893 12.2636 29.0122 14.2609H27.7521C27.2607 14.2609 26.8638 14.6578 26.8638 15.1492C26.8638 15.6407 27.2607 16.0376 27.7521 16.0376H29.1697V17.1339H27.7521C27.2607 17.1339 26.8638 17.5308 26.8638 18.0222C26.8638 18.5137 27.2607 18.9106 27.7521 18.9106H29.1697V20.0069H27.7521C27.2607 20.0069 26.8638 20.4038 26.8638 20.8953C26.8638 21.3867 27.2607 21.7836 27.7521 21.7836H29.1697V22.8799H27.7521C27.2607 22.8799 26.8638 23.2768 26.8638 23.7683C26.8638 24.2597 27.2607 24.6566 27.7521 24.6566H29.1697V25.7529H27.7521C27.2607 25.7529 26.8638 26.1498 26.8638 26.6413C26.8638 27.1327 27.2607 27.5296 27.7521 27.5296H29.0122C28.4893 29.5206 26.681 30.9949 24.5263 30.9949C22.3715 30.9949 20.5633 29.5206 20.0404 27.5296H21.3005C21.7919 27.5296 22.1888 27.1327 22.1888 26.6413C22.1888 26.1498 21.7919 25.7529 21.3005 25.7529H19.8829V24.6566ZM32.2758 26.4208H32.2632C32.2632 30.6925 28.7917 34.164 24.52 34.164C20.2483 34.164 16.7767 30.6925 16.7767 26.4208V21.1473H18.1061V26.3577C18.1061 29.8986 20.9854 32.7779 24.5263 32.7779C28.0671 32.7779 30.9464 29.8986 30.9464 26.3577V21.1473H32.2758V26.4208Z" fill="#2E5F5C"/>
</svg>
