<svg width="50" height="50" viewBox="0 0 50 50" fill="none" xmlns="http://www.w3.org/2000/svg">
<circle cx="25" cy="25" r="25" fill="white"/>
<path d="M24.5 10.5172C30.6145 10.5172 35.5714 15.4576 35.5714 21.5517V34.7931C35.5714 36.012 34.5801 37 33.3571 37H15.6429C14.42 37 13.4286 36.012 13.4286 34.7931V21.5517C13.4286 15.4576 18.3854 10.5172 24.5 10.5172ZM24.5 10.5172V5M16.75 30.3793H32.25M9 22.6552V31.4828M40 22.6552V31.4828M20.0714 25.9655C18.8485 25.9655 17.8571 24.9774 17.8571 23.7586C17.8571 22.5398 18.8485 21.5517 20.0714 21.5517C21.2943 21.5517 22.2857 22.5398 22.2857 23.7586C22.2857 24.9774 21.2943 25.9655 20.0714 25.9655ZM28.9286 25.9655C27.7057 25.9655 26.7143 24.9774 26.7143 23.7586C26.7143 22.5398 27.7057 21.5517 28.9286 21.5517C30.1515 21.5517 31.1429 22.5398 31.1429 23.7586C31.1429 24.9774 30.1515 25.9655 28.9286 25.9655Z" stroke="#2E5F5C" stroke-width="2"/>
</svg>
