<svg width="20" height="20" viewBox="0 0 20 20" fill="none" xmlns="http://www.w3.org/2000/svg">
<path d="M3.47869 15.3931C3.99377 14.6665 4.38296 13.8431 4.61801 12.9563C4.64701 12.8474 4.61154 12.7319 4.52787 12.6591L2.29462 10.7177C2.17716 10.6155 2.16108 10.4336 2.25881 10.3125L4.11698 8.00937C4.18659 7.92308 4.20125 7.80314 4.15361 7.70102C3.76669 6.86919 3.23914 6.12685 2.60462 5.50182C2.4842 5.38302 2.2926 5.39995 2.19341 5.53816C0.00224759 8.56103 0.380304 12.8392 3.06761 15.431C3.18937 15.5481 3.38097 15.5312 3.47882 15.3946L3.47869 15.3931Z" stroke="white" stroke-width="0.5" stroke-miterlimit="10"/>
<path d="M16.9046 14.4981C16.2701 13.8731 15.7425 13.1307 15.3556 12.2989C15.308 12.1968 15.3226 12.0768 15.3922 11.9905L17.2504 9.68745C17.3481 9.56632 17.3321 9.38437 17.2146 9.28226L14.9813 7.34077C14.8977 7.26803 14.8622 7.15251 14.8912 7.04362C15.1263 6.15682 15.5155 5.33346 16.0305 4.60683C16.1283 4.46875 16.3199 4.45181 16.4418 4.57048C19.1291 7.1622 19.5071 11.4404 17.316 14.4633C17.2166 14.6 17.025 14.6169 16.9048 14.4996L16.9046 14.4981Z" stroke="white" stroke-width="0.5" stroke-miterlimit="10"/>
<path d="M4.52129 3.52525C5.22543 4.064 6.02205 4.47283 6.87887 4.72225C6.98408 4.75302 7.09527 4.717 7.16488 4.63071L9.02305 2.32763C9.12078 2.2065 9.29618 2.191 9.41363 2.29311L11.6469 4.23459C11.7306 4.30733 11.8463 4.32329 11.9445 4.27455C12.7443 3.87872 13.4569 3.3365 14.0557 2.68261C14.1695 2.55852 14.1519 2.35974 14.018 2.256C11.0883 -0.0353805 6.9645 0.329085 4.48212 3.09878C4.36992 3.22427 4.38749 3.42305 4.51982 3.52538L4.52129 3.52525Z" stroke="white" stroke-width="0.5" stroke-miterlimit="10"/>
<path d="M5.44854 17.3206C6.04729 16.6667 6.75987 16.1245 7.55967 15.7287C7.65785 15.6799 7.77363 15.6959 7.8573 15.7686L10.0906 17.7101C10.208 17.8122 10.3834 17.7967 10.4811 17.6756L12.3393 15.3725C12.4089 15.2862 12.5201 15.2502 12.6253 15.281C13.4821 15.5304 14.2788 15.9392 14.9829 16.478C15.1167 16.5802 15.1343 16.779 15.0206 16.9046C12.5382 19.6743 8.41438 20.0387 5.48476 17.7474C5.3523 17.6435 5.33474 17.4447 5.44707 17.3208L5.44854 17.3206Z" stroke="white" stroke-width="0.5" stroke-miterlimit="10"/>
</svg>
