<svg width="44" height="44" viewBox="0 0 44 44" fill="none" xmlns="http://www.w3.org/2000/svg">
<path d="M22 42C33.0457 42 42 33.0457 42 22C42 10.9543 33.0457 2 22 2C10.9543 2 2 10.9543 2 22C2 33.0457 10.9543 42 22 42Z" stroke="#2E5F5C" stroke-width="3" stroke-linecap="round" stroke-linejoin="round"/>
<path d="M13.1111 4.22266V8.6671C13.1111 11.1217 15.101 13.1115 17.5556 13.1115H19.7778C22.2324 13.1115 24.2222 15.1014 24.2222 17.556C24.2222 20.0107 26.212 22.0004 28.6667 22.0004C31.1213 22.0004 33.1111 20.0107 33.1111 17.556C33.1111 15.1014 35.1009 13.1115 37.5556 13.1115H39.7778M39.7778 30.8893H33.1111C30.6564 30.8893 28.6667 32.8791 28.6667 35.3338V39.7782M19.7778 39.7782V35.3338C19.7778 32.8791 17.788 30.8893 15.3333 30.8893C12.8787 30.8893 10.8889 28.8995 10.8889 26.4449C10.8889 23.9902 8.89904 22.0004 6.44444 22.0004H2" stroke="#2E5F5C" stroke-width="3" stroke-linecap="round" stroke-linejoin="round"/>
</svg>
