<svg width="40" height="40" viewBox="0 0 40 40" fill="none" xmlns="http://www.w3.org/2000/svg">
<rect width="40" height="40" rx="6" fill="#2E5F5C"/>
<path d="M25.3448 16.4816H23.9587V14.0126C23.9626 11.7996 22.163 10 19.95 10C17.737 10 15.9374 11.7996 15.9374 14.0126V16.4816H14.5552C14.2481 16.4816 14 16.7297 14 17.0368V20.888C14 23.9831 16.3745 26.5308 19.3948 26.8104V28.8895H18.1307C17.8236 28.8895 17.5755 29.1376 17.5755 29.4448C17.5755 29.7519 17.8236 30 18.1307 30H21.7692C22.0764 30 22.3245 29.7519 22.3245 29.4448C22.3245 29.1376 22.0764 28.8895 21.7692 28.8895H20.5052V26.8143C23.5255 26.5348 25.9 23.9831 25.9 20.8919V17.0408C25.9039 16.7297 25.6519 16.4816 25.3448 16.4816ZM17.0518 19.7854H17.9378C18.2449 19.7854 18.493 19.5373 18.493 19.2302C18.493 18.923 18.2449 18.6749 17.9378 18.6749H17.0518V17.9898H17.9378C18.2449 17.9898 18.493 17.7417 18.493 17.4345C18.493 17.1274 18.2449 16.8793 17.9378 16.8793H17.0518V16.1941H17.9378C18.2449 16.1941 18.493 15.9461 18.493 15.6389C18.493 15.3318 18.2449 15.0837 17.9378 15.0837H17.0518V14.3985H17.9378C18.2449 14.3985 18.493 14.1504 18.493 13.8433C18.493 13.5361 18.2449 13.288 17.9378 13.288H17.1502C17.4771 12.0437 18.6072 11.1183 19.9539 11.1183C21.3006 11.1183 22.4308 12.0398 22.7576 13.288H21.9701C21.6629 13.288 21.4148 13.5361 21.4148 13.8433C21.4148 14.1504 21.6629 14.3985 21.9701 14.3985H22.8561V15.0837H21.9701C21.6629 15.0837 21.4148 15.3318 21.4148 15.6389C21.4148 15.9461 21.6629 16.1941 21.9701 16.1941H22.8561V16.8793H21.9701C21.6629 16.8793 21.4148 17.1274 21.4148 17.4345C21.4148 17.7417 21.6629 17.9898 21.9701 17.9898H22.8561V18.6749H21.9701C21.6629 18.6749 21.4148 18.923 21.4148 19.2302C21.4148 19.5373 21.6629 19.7854 21.9701 19.7854H22.8561V20.4706H21.9701C21.6629 20.4706 21.4148 20.7186 21.4148 21.0258C21.4148 21.3329 21.6629 21.581 21.9701 21.581H22.7576C22.4308 22.8254 21.3006 23.7468 19.9539 23.7468C18.6072 23.7468 17.4771 22.8254 17.1502 21.581H17.9378C18.2449 21.581 18.493 21.3329 18.493 21.0258C18.493 20.7186 18.2449 20.4706 17.9378 20.4706H17.0518V19.7854ZM24.7974 20.888H24.7895C24.7895 23.5578 22.6198 25.7275 19.95 25.7275C17.2802 25.7275 15.1105 23.5578 15.1105 20.888V17.592H15.9413V20.8486C15.9413 23.0616 17.7409 24.8612 19.9539 24.8612C22.167 24.8612 23.9665 23.0616 23.9665 20.8486V17.592H24.7974V20.888Z" fill="white"/>
</svg>
