<svg width="28" height="32" viewBox="0 0 28 32" fill="none" xmlns="http://www.w3.org/2000/svg">
<path d="M14 15.2996C12.8 15.2996 12 16.0996 12 17.2996C12 18.0996 12.6 18.6996 13.2 18.8996L12.6 21.6996H15.2L14.6 18.8996C15.4 18.6996 15.8 18.0996 15.8 17.2996C16 16.0996 15.2 15.2996 14 15.2996ZM14.2 6.69961C12.8 6.69961 11.4 7.69961 11.4 9.09961V12.0996H16.8V9.09961C16.6 7.69961 15.6 6.69961 14.2 6.69961ZM14 0.0996094L0 6.09961V12.0996C0.2 20.8996 5.8 28.6996 14 31.8996C22.2 28.6996 27.8 20.8996 28 12.0996V6.09961L14 0.0996094ZM22 22.0996C22 23.2996 21.2 24.0996 20 24.0996H8C6.8 24.0996 6 23.2996 6 22.0996V14.0996C6 12.8996 6.8 12.0996 8 12.0996H8.6V9.09961C8.8 6.29961 11.2 4.09961 14 4.09961C16.8 4.09961 19.2 6.29961 19.4 9.09961V12.0996H20C21.2 12.0996 22 12.8996 22 14.0996V22.0996Z" fill="#2E5F5C"/>
</svg>
