<svg width="40" height="40" viewBox="0 0 40 40" fill="none" xmlns="http://www.w3.org/2000/svg">
<rect width="40" height="40" rx="6" fill="#2E5F5C"/>
<path d="M28.3327 14.6562C25.7995 16.1187 22.9244 16.8849 19.9993 16.8771C17.0743 16.8849 14.1992 16.1187 11.666 14.6562" stroke="white" stroke-width="2"/>
<path d="M11.666 25.3678C14.1957 23.9112 17.0636 23.1445 19.9827 23.1445C22.9018 23.1445 25.7697 23.9112 28.2993 25.3678" stroke="white" stroke-width="2"/>
<path d="M18.7493 30C16.5856 27.1151 15.416 23.6062 15.416 20C15.416 16.3938 16.5856 12.8849 18.7493 10" stroke="white" stroke-width="2"/>
<path d="M21.25 10C23.4137 12.8849 24.5833 16.3938 24.5833 20C24.5833 23.6062 23.4137 27.1151 21.25 30" stroke="white" stroke-width="2"/>
<path d="M20 30C25.5228 30 30 25.5228 30 20C30 14.4772 25.5228 10 20 10C14.4772 10 10 14.4772 10 20C10 25.5228 14.4772 30 20 30Z" stroke="white" stroke-width="2"/>
</svg>
