<svg width="32" height="28" viewBox="0 0 32 28" fill="none" xmlns="http://www.w3.org/2000/svg">
<path d="M16.586 0.585573C16.9611 0.210631 17.4697 0 18 0C18.5303 0 19.0389 0.210631 19.414 0.585573L31.414 12.5856C31.7889 12.9606 31.9996 13.4692 31.9996 13.9996C31.9996 14.5299 31.7889 15.0385 31.414 15.4136L19.414 27.4136C19.0368 27.7779 18.5316 27.9795 18.0072 27.9749C17.4828 27.9704 16.9812 27.76 16.6104 27.3892C16.2395 27.0184 16.0292 26.5168 16.0247 25.9924C16.0201 25.468 16.2217 24.9628 16.586 24.5856L25.172 15.9996H2C1.46957 15.9996 0.96086 15.7889 0.585787 15.4138C0.210714 15.0387 0 14.53 0 13.9996C0 13.4691 0.210714 12.9604 0.585787 12.5854C0.96086 12.2103 1.46957 11.9996 2 11.9996H25.172L16.586 3.41357C16.2111 3.03852 16.0004 2.5299 16.0004 1.99957C16.0004 1.46924 16.2111 0.960629 16.586 0.585573Z" fill="#2E5F5C"/>
</svg>
