<svg width="35" height="36" viewBox="0 0 35 36" fill="none" xmlns="http://www.w3.org/2000/svg">
<g clip-path="url(#clip0_165_1949)">
<path d="M12.2297 35.4561C12.1164 35.4561 12.0258 35.4391 11.9578 35.4051C11.8898 35.3711 11.8218 35.3201 11.7538 35.2521L8.93228 32.4306H4.88695C3.59517 32.4306 2.47335 31.9716 1.52151 31.0538C0.569671 30.1359 0.09375 29.0198 0.09375 27.7053V17.2351C0.09375 15.9206 0.558339 14.8045 1.48752 13.8866C2.4167 12.9688 3.52718 12.5099 4.81896 12.5099H11.6858C11.8445 12.5099 11.9974 12.5722 12.1447 12.6968C12.2921 12.8215 12.3657 12.9858 12.3657 13.1898C12.3657 13.3937 12.3034 13.558 12.1787 13.6827C12.0541 13.8073 11.8898 13.8697 11.6858 13.8697H4.81896C3.88978 13.8697 3.08525 14.1983 2.40536 14.8555C1.72548 15.5127 1.38553 16.3286 1.38553 17.3031V27.7733C1.38553 28.7025 1.71981 29.507 2.38837 30.1869C3.05692 30.8668 3.86712 31.2068 4.81896 31.2068H9.20423C9.34021 31.2068 9.47052 31.2408 9.59517 31.3087C9.71981 31.3767 9.79347 31.4787 9.81613 31.6147L11.4819 33.2464V31.8866C11.4819 31.728 11.5442 31.575 11.6688 31.4277C11.7935 31.2804 11.9578 31.2068 12.1617 31.2068H19.4705C20.3997 31.2068 21.2042 30.8782 21.8841 30.2209C22.564 29.5637 22.9039 28.7478 22.9039 27.7733V23.1161C22.9039 22.9575 22.9663 22.8045 23.0909 22.6572C23.2156 22.5099 23.3799 22.4362 23.5838 22.4362C23.7651 22.4362 23.9294 22.4985 24.0768 22.6232C24.2241 22.7478 24.2977 22.9121 24.2977 23.1161V27.7733C24.2977 29.0878 23.8331 30.2039 22.9039 31.1218C21.9748 32.0396 20.853 32.4985 19.5385 32.4985H12.9096V34.8442C12.9096 34.9801 12.8756 35.1048 12.8076 35.2181C12.7396 35.3314 12.6377 35.4107 12.5017 35.4561H12.3317H12.2297ZM30.5187 22.8442C30.4054 22.8442 30.3147 22.8272 30.2467 22.7932C30.1787 22.7592 30.1107 22.7082 30.0428 22.6402L27.4932 20.0906C27.0853 20.2039 26.6717 20.2946 26.2524 20.3626C25.8331 20.4306 25.4082 20.4646 24.9776 20.4646H23.2439C21.8841 20.4872 20.5923 20.2606 19.3685 19.7847C18.1674 19.3087 17.1079 18.6345 16.1901 17.762C15.2722 16.8895 14.5413 15.864 13.9974 14.6855C13.4535 13.507 13.1589 12.2266 13.1136 10.8442C13.0683 9.48438 13.2949 8.1926 13.7935 6.9688C14.2694 5.76767 14.9379 4.70818 15.7991 3.79033C16.6603 2.87248 17.6915 2.14161 18.8926 1.5977C20.0711 1.05379 21.3402 0.759171 22.7 0.713844H23.0059H23.2439H24.9776C26.3374 0.713844 27.6178 0.974468 28.819 1.49571C30.0201 2.01696 31.0683 2.72517 31.9634 3.62036C32.8586 4.51554 33.5555 5.5637 34.0541 6.76484C34.5753 7.96597 34.836 9.23509 34.836 10.5722C34.836 11.3654 34.7453 12.1359 34.564 12.8838C34.3827 13.6317 34.1107 14.3456 33.7481 15.0255C33.4309 15.66 33.0513 16.2436 32.6093 16.7762C32.1674 17.3087 31.6745 17.8017 31.1306 18.2549V22.1643C31.1306 22.3002 31.0966 22.4306 31.0286 22.5552C30.9606 22.6799 30.8586 22.7535 30.7226 22.7762C30.7226 22.8215 30.7113 22.8442 30.6887 22.8442H30.5187ZM27.6972 18.6629C27.8105 18.6629 27.9011 18.6798 27.9691 18.7138C28.0371 18.7478 28.1051 18.7988 28.1731 18.8668L29.8388 20.5325V17.915C29.8388 17.8017 29.8558 17.6997 29.8898 17.609C29.9238 17.5184 29.9974 17.4391 30.1107 17.3711C31.0399 16.6685 31.7878 15.83 32.3544 14.8555C32.9209 13.881 33.2779 12.8498 33.4252 11.762C33.5725 10.6742 33.5102 9.58636 33.2382 8.49855C32.9663 7.41073 32.4677 6.3909 31.7425 5.43906C30.9719 4.3739 29.9861 3.54671 28.785 2.95747C27.5838 2.36823 26.3147 2.05095 24.9776 2.00563H23.2439C22.0881 1.93764 20.9776 2.08495 19.9124 2.44756C18.8473 2.81016 17.9011 3.3484 17.0739 4.06229C16.2467 4.77617 15.5725 5.63169 15.0513 6.62886C14.53 7.62603 14.2241 8.71384 14.1334 9.89231C14.0428 11.0708 14.1901 12.1813 14.5753 13.2238C14.9379 14.2889 15.4762 15.2351 16.1901 16.0623C16.9039 16.8895 17.7595 17.5637 18.7566 18.0849C19.7538 18.6062 20.8416 18.9121 22.0201 19.0028H22.666H23.3119H25.0456C25.4535 19.0028 25.8728 18.9745 26.3034 18.9178C26.734 18.8612 27.1532 18.7762 27.5612 18.6629H27.6292H27.6972ZM24.3657 13.3937C24.1844 13.3937 24.0201 13.3314 23.8728 13.2068C23.7255 13.0821 23.6518 12.9178 23.6518 12.7138V11.0481C23.6518 10.7535 23.7481 10.4872 23.9408 10.2493C24.1334 10.0113 24.3884 9.86965 24.7056 9.82433C25.1136 9.73367 25.4195 9.50705 25.6235 9.14444C25.8275 8.78183 25.8841 8.39656 25.7935 7.98863C25.7255 7.67135 25.5668 7.40506 25.3175 7.18976C25.0683 6.97447 24.7736 6.84416 24.4337 6.79883C24.0031 6.77617 23.6292 6.91214 23.3119 7.20676C22.9946 7.50138 22.8133 7.85265 22.768 8.26059V8.29458V8.32858C22.768 8.48722 22.7056 8.64019 22.581 8.7875C22.4564 8.93481 22.2921 9.00846 22.0881 9.00846C21.9068 9.00846 21.7481 8.94614 21.6122 8.82149C21.4762 8.69685 21.4082 8.53254 21.4082 8.32858C21.4082 7.53537 21.6915 6.85549 22.2581 6.28891C22.8246 5.72234 23.5045 5.43906 24.2977 5.43906C25.0683 5.43906 25.7368 5.72234 26.3034 6.28891C26.87 6.85549 27.1532 7.53537 27.1532 8.32858C27.1532 8.96314 26.9493 9.54671 26.5413 10.0793C26.1334 10.6119 25.6122 10.9575 24.9776 11.1161V12.7818C25.0003 12.9405 24.9436 13.0821 24.8076 13.2068C24.6717 13.3314 24.5243 13.3937 24.3657 13.3937ZM24.3657 16.0793C24.2524 16.0793 24.1561 16.0623 24.0768 16.0283C23.9974 15.9943 23.9238 15.932 23.8558 15.8413C23.7878 15.7733 23.7368 15.7053 23.7028 15.6374C23.6688 15.5694 23.6518 15.4787 23.6518 15.3654C23.6518 15.2748 23.6688 15.1898 23.7028 15.1104C23.7368 15.0311 23.7878 14.9575 23.8558 14.8895C24.0144 14.7535 24.1844 14.6855 24.3657 14.6855C24.547 14.6855 24.7056 14.7535 24.8416 14.8895C24.9096 14.9575 24.9606 15.0311 24.9946 15.1104C25.0286 15.1898 25.0456 15.2748 25.0456 15.3654C25.0456 15.4787 25.0286 15.5694 24.9946 15.6374C24.9606 15.7053 24.9096 15.7733 24.8416 15.8413C24.7736 15.932 24.7 15.9943 24.6207 16.0283C24.5413 16.0623 24.4564 16.0793 24.3657 16.0793ZM18.7906 23.0481H4.41103C4.22973 23.0255 4.08242 22.9461 3.9691 22.8102C3.85579 22.6742 3.79913 22.5042 3.79913 22.3002C3.8218 22.1189 3.88412 21.9773 3.9861 21.8753C4.08808 21.7733 4.22973 21.711 4.41103 21.6883H18.7226C18.9039 21.643 19.0683 21.6827 19.2156 21.8073C19.3629 21.932 19.4479 22.0963 19.4705 22.3002C19.5158 22.4816 19.4762 22.6459 19.3515 22.7932C19.2269 22.9405 19.0626 23.0255 18.8586 23.0481C18.8586 23.0934 18.8473 23.1161 18.8246 23.1161C18.802 23.1161 18.7906 23.0934 18.7906 23.0481ZM18.7906 26.8895C18.7 26.8895 18.615 26.8725 18.5357 26.8385C18.4564 26.8045 18.3827 26.7535 18.3147 26.6855C18.2467 26.6175 18.1957 26.5439 18.1617 26.4646C18.1277 26.3852 18.1107 26.3002 18.1107 26.2096C18.1107 26.0963 18.1277 26.0056 18.1617 25.9376C18.1957 25.8697 18.2467 25.8017 18.3147 25.7337C18.4507 25.5977 18.6093 25.5297 18.7906 25.5297C18.9719 25.5297 19.1306 25.5977 19.2666 25.7337C19.3345 25.8017 19.3855 25.8697 19.4195 25.9376C19.4535 26.0056 19.4705 26.0963 19.4705 26.2096C19.4705 26.3002 19.4535 26.3852 19.4195 26.4646C19.3855 26.5439 19.3345 26.6175 19.2666 26.6855C19.1986 26.7535 19.1192 26.8045 19.0286 26.8385C18.9379 26.8725 18.8586 26.8895 18.7906 26.8895ZM16.1391 26.8895H4.47902C4.29772 26.8895 4.13908 26.8272 4.0031 26.7025C3.86712 26.5779 3.79913 26.4136 3.79913 26.2096C3.79913 26.0283 3.86146 25.8697 3.9861 25.7337C4.11075 25.5977 4.27505 25.5297 4.47902 25.5297H16.1391C16.2977 25.5297 16.4507 25.592 16.598 25.7167C16.7453 25.8413 16.819 26.0056 16.819 26.2096C16.819 26.4136 16.7453 26.5779 16.598 26.7025C16.4507 26.8272 16.2977 26.8895 16.1391 26.8895ZM14.3374 19.2748H4.41103C4.22973 19.2748 4.07109 19.2124 3.93511 19.0878C3.79913 18.9631 3.73114 18.7988 3.73114 18.5949C3.73114 18.3909 3.79347 18.2266 3.91811 18.1019C4.04276 17.9773 4.20706 17.915 4.41103 17.915H14.3374C14.5187 17.915 14.6773 17.9773 14.8133 18.1019C14.9493 18.2266 15.0173 18.3909 15.0173 18.5949C15.0173 18.7988 14.9549 18.9631 14.8303 19.0878C14.7056 19.2124 14.5413 19.2748 14.3374 19.2748Z" fill="white"/>
</g>
<defs>
<clipPath id="clip0_165_1949">
<rect width="35" height="36" fill="white" transform="matrix(1 0 0 -1 0 36)"/>
</clipPath>
</defs>
</svg>
