<svg width="24" height="24" viewBox="0 0 24 24" fill="none" xmlns="http://www.w3.org/2000/svg">
<path d="M12.5 0C7.275 0 3 4.32 3 9.6C3 16.08 11.3125 23.4 11.6687 23.76C11.9062 23.88 12.2625 24 12.5 24C12.7375 24 13.0938 23.88 13.3313 23.76C13.6875 23.4 22 16.08 22 9.6C22 4.32 17.725 0 12.5 0ZM12.5 21.24C10.0062 18.84 5.375 13.68 5.375 9.6C5.375 5.64 8.58125 2.4 12.5 2.4C16.4187 2.4 19.625 5.64 19.625 9.6C19.625 13.56 14.9937 18.84 12.5 21.24ZM12.5 4.8C9.8875 4.8 7.75 6.96 7.75 9.6C7.75 12.24 9.8875 14.4 12.5 14.4C15.1125 14.4 17.25 12.24 17.25 9.6C17.25 6.96 15.1125 4.8 12.5 4.8ZM12.5 12C11.1938 12 10.125 10.92 10.125 9.6C10.125 8.28 11.1938 7.2 12.5 7.2C13.8062 7.2 14.875 8.28 14.875 9.6C14.875 10.92 13.8062 12 12.5 12Z" fill="white"/>
</svg>
