<svg width="44" height="44" viewBox="0 0 44 44" fill="none" xmlns="http://www.w3.org/2000/svg">
<path d="M23.0526 4.10526H31.8947C35.432 4.10526 37.2004 4.10526 38.5516 4.79364C39.74 5.39916 40.7061 6.36535 41.3116 7.55375C42 8.90476 42 10.6733 42 14.2105V31.8947C42 35.432 42 37.2004 41.3116 38.5516C40.7061 39.74 39.74 40.7061 38.5516 41.3116C37.2004 42 35.432 42 31.8947 42H14.2105C10.6733 42 8.90476 42 7.55375 41.3116C6.36535 40.7061 5.39916 39.74 4.79364 38.5516C4.10526 37.2004 4.10526 35.432 4.10526 31.8947V23.0526M14.6316 25.1579V33.5789M31.4737 20.9474V33.5789M23.0526 12.5263V33.5789M2 8.31579L8.31579 2M8.31579 2L14.6316 8.31579M8.31579 2V14.6316" stroke="white" stroke-width="4" stroke-linecap="round" stroke-linejoin="round"/>
</svg>
