<svg width="44" height="44" viewBox="0 0 44 44" fill="none" xmlns="http://www.w3.org/2000/svg">
<path d="M31.5597 28.9012V25.5378C31.5597 25.1316 31.3983 24.742 31.111 24.4547C30.8238 24.1675 30.4342 24.0061 30.028 24.0061H28.2987C27.9937 24.0055 27.6957 23.9142 27.4426 23.7438C27.1896 23.5734 26.9929 23.3316 26.8776 23.0492L26.8695 23.0297C26.7513 22.7483 26.7191 22.4382 26.777 22.1385C26.8349 21.8389 26.9802 21.5631 27.1947 21.3459L28.4142 20.1264C28.5565 19.9843 28.6693 19.8154 28.7463 19.6296C28.8233 19.4438 28.863 19.2447 28.863 19.0435C28.863 18.8424 28.8233 18.6432 28.7463 18.4574C28.6693 18.2716 28.5565 18.1028 28.4142 17.9606L26.0419 15.5768C25.8997 15.4346 25.7309 15.3217 25.5451 15.2447C25.3593 15.1677 25.1601 15.128 24.959 15.128C24.7578 15.128 24.5587 15.1677 24.3728 15.2447C24.187 15.3217 24.0182 15.4346 23.876 15.5768L22.6566 16.7964C22.4394 17.0108 22.1636 17.1562 21.864 17.2141C21.5643 17.2719 21.2542 17.2398 20.9728 17.1216L20.9533 17.1134C20.6711 16.9982 20.4295 16.8018 20.2592 16.5491C20.0888 16.2964 19.9974 15.9987 19.9964 15.6939V13.9712C19.9964 13.5649 19.8351 13.1753 19.5478 12.8881C19.2606 12.6008 18.871 12.4395 18.4648 12.4395H15.0982C14.6919 12.4395 14.3023 12.6008 14.0151 12.8881C13.7278 13.1753 13.5665 13.5649 13.5665 13.9712V15.7004C13.5659 16.0055 13.4746 16.3035 13.3042 16.5566C13.1338 16.8096 12.892 17.0063 12.6096 17.1216L12.5901 17.1297C12.3087 17.2479 11.9986 17.2801 11.6989 17.2222C11.3993 17.1643 11.1235 17.019 10.9064 16.8045L9.68686 15.585C9.54469 15.4427 9.37588 15.3298 9.19007 15.2528C9.00426 15.1758 8.80509 15.1362 8.60396 15.1362C8.40282 15.1362 8.20365 15.1758 8.01784 15.2528C7.83203 15.3298 7.66322 15.4427 7.52105 15.585L5.13979 17.9573C4.99751 18.0995 4.88464 18.2683 4.80763 18.4541C4.73062 18.6399 4.69098 18.8391 4.69098 19.0403C4.69098 19.2414 4.73062 19.4406 4.80763 19.6264C4.88464 19.8122 4.99751 19.981 5.13979 20.1232L6.35928 21.3427C6.57375 21.5598 6.7191 21.8356 6.77698 22.1353C6.83485 22.435 6.80267 22.745 6.68448 23.0264L6.67635 23.0459C6.56116 23.3281 6.36475 23.5697 6.11202 23.7401C5.85929 23.9105 5.56165 24.0019 5.25686 24.0029H3.53168C3.33027 24.0029 3.13083 24.0426 2.94478 24.1198C2.75874 24.1969 2.58974 24.3101 2.44747 24.4526C2.3052 24.5952 2.19244 24.7644 2.11566 24.9507C2.03888 25.1369 1.99958 25.3364 2 25.5378V28.9012C2 29.3075 2.16138 29.6971 2.44862 29.9843C2.73587 30.2716 3.12546 30.4329 3.53168 30.4329H5.26092C5.56571 30.4338 5.86336 30.5253 6.11608 30.6957C6.36881 30.866 6.56523 31.1076 6.68041 31.3898L6.68854 31.4093C6.80673 31.6907 6.83892 32.0008 6.78104 32.3005C6.72316 32.6002 6.57782 32.876 6.36334 33.0931L5.14385 34.3126C5.00157 34.4548 4.8887 34.6236 4.81169 34.8094C4.73469 34.9952 4.69505 35.1944 4.69505 35.3955C4.69505 35.5967 4.73469 35.7958 4.81169 35.9816C4.8887 36.1675 5.00157 36.3363 5.14385 36.4784L7.52186 38.8565C7.66403 38.9988 7.83284 39.1116 8.01865 39.1887C8.20447 39.2657 8.40363 39.3053 8.60477 39.3053C8.8059 39.3053 9.00507 39.2657 9.19088 39.1887C9.37669 39.1116 9.54551 38.9988 9.68768 38.8565L10.9072 37.637C11.1243 37.4225 11.4001 37.2772 11.6998 37.2193C11.9994 37.1614 12.3095 37.1936 12.5909 37.3118L12.6104 37.3199C12.8926 37.4351 13.1342 37.6315 13.3046 37.8842C13.4749 38.137 13.5664 38.4346 13.5673 38.7394V40.4687C13.5675 40.8746 13.7289 41.2639 14.0159 41.551C14.3029 41.838 14.6922 41.9994 15.0982 41.9996H18.4615C18.8677 41.9996 19.2573 41.8382 19.5446 41.551C19.8318 41.2637 19.9932 40.8741 19.9932 40.4679V38.7386C19.9941 38.4338 20.0856 38.1362 20.2559 37.8834C20.4263 37.6307 20.6679 37.4343 20.9501 37.3191L20.9696 37.311C21.251 37.1928 21.5611 37.1606 21.8607 37.2185C22.1604 37.2763 22.4362 37.4217 22.6533 37.6362L23.8728 38.8557C24.015 38.998 24.1838 39.1108 24.3696 39.1878C24.5554 39.2649 24.7546 39.3045 24.9557 39.3045C25.1568 39.3045 25.356 39.2649 25.5418 39.1878C25.7276 39.1108 25.8964 38.998 26.0386 38.8557L28.4223 36.4817C28.5646 36.3395 28.6775 36.1707 28.7545 35.9849C28.8315 35.7991 28.8711 35.5999 28.8711 35.3988C28.8711 35.1976 28.8315 34.9985 28.7545 34.8127C28.6775 34.6268 28.5646 34.458 28.4223 34.3158L27.2028 33.0963C26.9883 32.8792 26.843 32.6034 26.7851 32.3037C26.7272 32.0041 26.7594 31.694 26.8776 31.4126L26.8858 31.3931C27.0009 31.1109 27.1974 30.8693 27.4501 30.6989C27.7028 30.5285 28.0005 30.4371 28.3052 30.4362H30.0345C30.4401 30.4345 30.8286 30.2719 31.1145 29.9841C31.4004 29.6963 31.5605 29.3069 31.5597 28.9012Z" stroke="white" stroke-width="3" stroke-linecap="round" stroke-linejoin="round"/>
<path d="M16.7804 33.3013C20.139 33.3013 22.8616 30.5786 22.8616 27.22C22.8616 23.8614 20.139 21.1387 16.7804 21.1387C13.4219 21.1387 10.6992 23.8614 10.6992 27.22C10.6992 30.5786 13.4219 33.3013 16.7804 33.3013Z" stroke="white" stroke-width="3" stroke-linecap="round" stroke-linejoin="round"/>
<path d="M18.0508 12.4398V12.4065C18.0508 12.0831 18.1793 11.7729 18.408 11.5442C18.6367 11.3155 18.9468 11.187 19.2703 11.187H20.6442C20.8866 11.1867 21.1233 11.1143 21.3243 10.9789C21.5253 10.8435 21.6814 10.6513 21.7727 10.4268C21.7727 10.4219 21.7767 10.4163 21.7792 10.4114C21.8731 10.1875 21.8984 9.94074 21.8518 9.70245C21.8052 9.46417 21.6888 9.24513 21.5174 9.07316L20.5418 8.10243C20.3142 7.87387 20.1864 7.56444 20.1864 7.24186C20.1864 6.91929 20.3142 6.60985 20.5418 6.3813L22.4312 4.49187C22.6597 4.26449 22.969 4.13684 23.2913 4.13684C23.6137 4.13684 23.923 4.26449 24.1515 4.49187L25.123 5.46748C25.2953 5.63808 25.5144 5.75371 25.7525 5.79973C25.9905 5.84576 26.2369 5.8201 26.4604 5.72601L26.4758 5.71951C26.7005 5.62836 26.8928 5.47232 27.0284 5.27132C27.1639 5.07032 27.2365 4.83348 27.2368 4.59105V3.21951C27.2368 2.89608 27.3653 2.58589 27.594 2.35719C27.8227 2.12848 28.1329 2 28.4563 2H31.1286C31.452 2 31.7622 2.12848 31.9909 2.35719C32.2196 2.58589 32.3481 2.89608 32.3481 3.21951V4.59349C32.3483 4.83583 32.4208 5.0726 32.5562 5.27359C32.6916 5.47457 32.8838 5.63067 33.1082 5.72195L33.1229 5.72845C33.3465 5.8225 33.593 5.84813 33.8312 5.80211C34.0694 5.7561 34.2886 5.64049 34.4611 5.46992L35.4367 4.49431C35.6652 4.26692 35.9744 4.13928 36.2968 4.13928C36.6192 4.13928 36.9284 4.26692 37.157 4.49431L39.0464 6.38374C39.274 6.61229 39.4018 6.92173 39.4018 7.2443C39.4018 7.56688 39.274 7.87631 39.0464 8.10487L38.0691 9.07316C37.8983 9.24552 37.7826 9.46478 37.7367 9.70307C37.6908 9.94135 37.7168 10.1879 37.8114 10.4114L37.8171 10.4268C37.9083 10.6512 38.0643 10.8433 38.2651 10.9787C38.4659 11.1141 38.7025 11.1866 38.9447 11.187H40.3187C40.6421 11.187 40.9523 11.3155 41.181 11.5442C41.4097 11.7729 41.5382 12.0831 41.5382 12.4065V15.078C41.5382 15.4015 41.4097 15.7117 41.181 15.9404C40.9523 16.1691 40.6421 16.2975 40.3187 16.2975H38.9447C38.7024 16.298 38.4658 16.3707 38.265 16.5062C38.0641 16.6417 37.9082 16.834 37.8171 17.0585L37.8114 17.0732C37.7163 17.2965 37.69 17.5432 37.7359 17.7816C37.7818 18.02 37.8978 18.2393 38.0691 18.4114L39.0407 19.3829C39.268 19.6114 39.3957 19.9207 39.3957 20.2431C39.3957 20.5654 39.268 20.8747 39.0407 21.1032L37.1513 22.9927C36.9227 23.22 36.6135 23.3477 36.2911 23.3477C35.9687 23.3477 35.6595 23.22 35.431 22.9927L34.4554 22.0211C34.2834 21.8497 34.0642 21.7335 33.8258 21.6875C33.5874 21.6414 33.3406 21.6676 33.1172 21.7626L33.1026 21.7683C32.8792 21.86 32.6881 22.016 32.5535 22.2165C32.4189 22.4169 32.3469 22.6528 32.3465 22.8943V24.2683C32.3455 24.5163 32.269 24.758 32.127 24.9614C31.9851 25.1648 31.7846 25.32 31.5522 25.4065" stroke="white" stroke-width="3" stroke-linecap="round" stroke-linejoin="round"/>
<path d="M29.7944 17.7012C31.9806 17.7012 33.7529 15.9289 33.7529 13.7427C33.7529 11.5565 31.9806 9.78418 29.7944 9.78418C27.6082 9.78418 25.8359 11.5565 25.8359 13.7427C25.8359 15.9289 27.6082 17.7012 29.7944 17.7012Z" stroke="white" stroke-width="3" stroke-linecap="round" stroke-linejoin="round"/>
</svg>
