<svg width="44" height="40" viewBox="0 0 44 40" fill="none" xmlns="http://www.w3.org/2000/svg">
<path d="M15.1317 29.487L18.3047 26.314C19.3327 26.868 20.4697 27.149 21.6077 27.149C23.3907 27.149 25.1737 26.469 26.5337 25.109C31.4597 20.183 30.7557 11.035 30.7557 11.035C30.7557 11.035 30.3047 11 29.5477 11C26.8987 11 20.5137 11.426 16.6817 15.257C14.4527 17.486 14.0527 20.848 15.4757 23.487L12.3027 26.659L15.1317 29.487Z" fill="white"/>
<path d="M12.813 13.672L11.26 9.986L8.476 11.159C11.403 6.775 16.4 4 21.791 4C30.613 4 37.791 11.178 37.791 20H41.791C41.791 8.972 32.819 0 21.791 0C14.813 0 8.37101 3.723 4.776 9.542L3.789 6.622L0 7.903L3.305 17.677L12.813 13.672Z" fill="white"/>
<path d="M30.769 26.328L32.322 30.014L35.106 28.841C32.179 33.225 27.182 36 21.791 36C12.969 36 5.79102 28.822 5.79102 20H1.79102C1.79102 31.028 10.763 40 21.791 40C28.769 40 35.211 36.277 38.806 30.458L39.793 33.378L43.582 32.097L40.277 22.323L30.769 26.328Z" fill="white"/>
</svg>
