<svg width="32" height="32" viewBox="0 0 32 32" fill="none" xmlns="http://www.w3.org/2000/svg">
<g clip-path="url(#clip0_349_1198)">
<path d="M30.4155 26.5599C27.216 24.8762 24.7685 23.9413 22.5947 23.5722L22.8315 23.2469C22.9243 23.1189 22.9558 22.9573 22.9179 22.8042L22.4224 20.8239C23.7494 18.953 24.5334 16.6159 24.5334 14.3999V12.2666H25.0667H26.1333C26.4283 12.2666 26.6666 12.0277 26.6666 11.7333C26.6666 11.4383 26.4282 11.2 26.1333 11.2H25.6V10.6667C25.6 9.18081 25.2502 7.78131 24.6229 6.53653L19.8341 7.45705C19.8005 7.46347 19.7669 7.46665 19.7334 7.46665C19.5936 7.46665 19.4576 7.41118 19.3568 7.31091C19.232 7.1856 19.1765 7.00692 19.2096 6.83301L20.0842 2.24099C19.6325 2.03778 19.1605 1.86177 18.6666 1.72153V1.60849C18.6666 0.721578 17.945 0 17.0581 0H14.9424C14.0549 0 13.3333 0.721579 13.3333 1.60856V1.7216C12.84 1.8619 12.368 2.03784 11.9163 2.24105L12.7909 6.83307C12.824 7.00692 12.7685 7.1856 12.6437 7.31097C12.5429 7.41124 12.4069 7.46671 12.2666 7.46671C12.233 7.46671 12.1994 7.46353 12.1659 7.45712L7.37763 6.53659C6.75041 7.78137 6.40004 9.18087 6.40004 10.6667V11.2H5.86673C5.57235 11.2 5.33343 11.4384 5.33343 11.7333C5.33343 12.0277 5.57235 12.2666 5.86673 12.2666H6.93341H7.46671V14.4C7.46671 16.616 8.25126 18.9531 9.57763 20.824L9.0827 22.8043C9.04432 22.9573 9.07628 23.1189 9.16912 23.247L9.40594 23.5723C7.23205 23.9413 4.78462 24.8763 1.58517 26.56C0.607458 27.0741 0 28.0805 0 29.1861V31.4666C0 31.761 0.238916 31.9999 0.533305 31.9999H13.3333H13.3338H13.5333C13.5338 31.9999 13.5338 31.9994 13.5344 31.9994L18.4431 31.9952C18.4517 31.9957 18.4586 32 18.4672 32H31.4666C31.7616 32 31.9999 31.7611 31.9999 31.4667V29.1862C32 28.0805 31.3931 27.0741 30.4155 26.5599ZM8.53332 14.4V12.2666H23.4666V14.4C23.4666 16.8016 22.617 18.9152 21.3605 20.5002C21.3418 20.5184 21.3173 20.5296 21.3012 20.5504C21.1178 20.785 20.9279 21.0063 20.7327 21.2144C20.7317 21.2155 20.7306 21.2165 20.7296 21.2176C20.5999 21.3546 20.465 21.4767 20.3306 21.6021C19.0272 22.7776 17.4789 23.4667 16 23.4667C14.5215 23.4667 12.9733 22.7776 11.6693 21.6021C11.5354 21.4768 11.4005 21.3546 11.2709 21.2176C11.2698 21.2165 11.2687 21.2154 11.2677 21.2144C11.0725 21.0064 10.8821 20.785 10.6986 20.5504C10.6826 20.5296 10.6586 20.5184 10.64 20.5002C9.38344 18.9152 8.53332 16.8016 8.53332 14.4ZM10.1781 22.8208L10.4176 21.864C10.4187 21.8656 10.4203 21.8666 10.4213 21.8677C11.7104 23.2698 13.3504 24.2576 15.1989 24.4821C15.2 24.4821 15.2011 24.4826 15.2021 24.4826L13.7546 27.7386L10.1781 22.8208ZM13.9845 30.9328L14.304 29.3333H17.6965L17.832 30.0091L18.016 30.9291L13.9845 30.9328ZM18.2458 27.7386L16.7984 24.4826C16.7994 24.4826 16.8005 24.4821 16.8015 24.4821C18.6501 24.2576 20.2901 23.2699 21.5791 21.8677C21.5802 21.8666 21.5818 21.8656 21.5829 21.864L21.8223 22.8208L18.2458 27.7386Z" fill="white"/>
<path d="M21.0695 2.75781L20.4023 6.25965L24.0519 5.55777C23.2941 4.43194 22.2808 3.4778 21.0695 2.75781Z" fill="white"/>
<path d="M10.9277 2.75781C9.71647 3.4778 8.70317 4.43194 7.94531 5.55784L11.5949 6.25972L10.9277 2.75781Z" fill="white"/>
</g>
<defs>
<clipPath id="clip0_349_1198">
<rect width="32" height="32" fill="white"/>
</clipPath>
</defs>
</svg>
