<svg width="41" height="30" viewBox="0 0 41 30" fill="none" xmlns="http://www.w3.org/2000/svg">
<path d="M35.1655 0H5.66925C2.53838 0 0 2.53837 0 5.66925V24.3307C0 27.4616 2.53838 30 5.66925 30H35.1655C38.2963 30 40.8348 27.4616 40.8348 24.3307V5.66925C40.8348 2.53837 38.2963 0 35.1655 0ZM14.2097 20.2415L6.27085 27.0144C5.71089 27.4923 4.86907 27.4258 4.39125 26.8653C3.91336 26.3053 3.9798 25.4635 4.5404 24.9857L12.4792 18.2129C13.0391 17.735 13.8809 17.8014 14.3588 18.362C14.8367 18.9219 14.7702 19.7637 14.2097 20.2415ZM20.4174 17.6667C19.3555 17.6641 18.3262 17.3112 17.5215 16.6153L17.5221 16.6159L17.5196 16.614C17.5202 16.6146 17.5209 16.6146 17.5215 16.6153L5.34058 6.04299C4.78389 5.55983 4.72463 4.71809 5.20707 4.16212C5.69015 3.60542 6.53197 3.54616 7.08786 4.0286L19.2722 14.6035C19.5326 14.8353 19.9617 15.0026 20.4174 15C20.8725 15.0014 21.2943 14.8386 21.5691 14.599L21.575 14.5938L33.7468 4.02869C34.3028 3.54624 35.1446 3.6055 35.6277 4.1622C36.1101 4.71809 36.0509 5.55991 35.4942 6.04307L23.31 16.6186C22.5079 17.3072 21.4799 17.6653 20.4174 17.6667ZM36.4441 26.8653C35.9662 27.4258 35.1244 27.4923 34.5646 27.0144L26.6257 20.2415C26.0652 19.7636 25.9988 18.9219 26.4766 18.362C26.9545 17.8014 27.7963 17.7351 28.3562 18.2129L36.295 24.9857C36.8555 25.4635 36.922 26.3053 36.4441 26.8653Z" fill="white"/>
</svg>
