<svg width="35" height="35" viewBox="0 0 35 35" fill="none" xmlns="http://www.w3.org/2000/svg">
<path d="M33.731 27.8054C33.731 28.3915 33.6008 28.9938 33.324 29.5798C33.1707 29.9046 32.9924 30.2193 32.7835 30.524C32.7108 30.63 32.6344 30.7348 32.5542 30.8384C32.4488 30.9745 32.3365 31.1084 32.217 31.2403C31.9084 31.5804 31.5877 31.884 31.2527 32.1519C30.7221 32.5765 30.1561 32.9117 29.5473 33.1612C28.5705 33.5682 27.5124 33.7798 26.3728 33.7798C24.7124 33.7798 22.938 33.3891 21.0659 32.5915C19.1938 31.7938 17.3217 30.7194 15.4659 29.3682C13.5938 28.0008 11.8194 26.4868 10.1263 24.8101C8.44959 23.117 6.93563 21.3426 5.58447 19.4868C4.24959 17.631 3.17517 15.7752 2.39377 13.9356C1.61238 12.0798 1.22168 10.3054 1.22168 8.61238C1.22168 7.5054 1.41703 6.44726 1.80773 5.47052C2.19842 4.47749 2.81703 3.56587 3.67982 2.75191C4.72168 1.72633 5.86122 1.22168 7.06587 1.22168C7.52168 1.22168 7.9775 1.31935 8.38447 1.5147C8.80773 1.71005 9.18215 2.00308 9.47517 2.42633L13.2519 7.74959C13.5449 8.15656 13.7566 8.53098 13.9031 8.88912C14.0496 9.23098 14.131 9.57284 14.131 9.88215C14.131 10.2728 14.017 10.6635 13.7891 11.038C13.5775 11.4124 13.2682 11.8031 12.8775 12.1938L11.6403 13.4798C11.4612 13.6589 11.3798 13.8705 11.3798 14.131C11.3798 14.2612 11.3961 14.3752 11.4287 14.5054C11.4775 14.6356 11.5263 14.7333 11.5589 14.831C11.8519 15.3682 12.3566 16.0682 13.0728 16.9147C13.8054 17.7612 14.5868 18.624 15.4333 19.4868C16.3124 20.3496 17.1589 21.1473 18.0217 21.8798C18.8682 22.5961 19.5682 23.0845 20.1217 23.3775C20.2031 23.4101 20.3008 23.4589 20.4147 23.5077C20.5449 23.5566 20.6752 23.5728 20.8217 23.5728C21.0984 23.5728 21.3101 23.4752 21.4891 23.2961L22.7263 22.0752C23.1333 21.6682 23.524 21.3589 23.8984 21.1635C24.2728 20.9356 24.6473 20.8217 25.0542 20.8217C25.3635 20.8217 25.6891 20.8868 26.0473 21.0333C26.4054 21.1798 26.7798 21.3915 27.1868 21.6682L32.5752 25.4938C32.9984 25.7868 33.2915 26.1287 33.4705 26.5356C33.6333 26.9426 33.731 27.3496 33.731 27.8054Z" fill="white"/>
<path fill-rule="evenodd" clip-rule="evenodd" d="M2.83187 1.87191C4.05598 0.670665 5.48701 0 7.06512 0C7.6889 0 8.32367 0.132479 8.90369 0.409256C9.50299 0.687449 10.0492 1.11337 10.4739 1.72431L14.2447 7.03907C14.5784 7.50312 14.8395 7.95714 15.0285 8.41685C15.2204 8.86737 15.3512 9.37095 15.3512 9.8814C15.3512 10.5112 15.1677 11.1131 14.8416 11.6548C14.5646 12.1407 14.186 12.6092 13.7487 13.0477L12.6275 14.2132C12.6388 14.24 12.6541 14.2763 12.6705 14.3183C12.9142 14.7454 13.3456 15.3466 13.9998 16.1202C14.7163 16.948 15.4762 17.7867 16.296 18.6228C17.1619 19.4724 17.982 20.2443 18.8101 20.9476C19.5932 21.61 20.2033 22.0323 20.6467 22.2733C20.6826 22.2888 20.7156 22.3038 20.7425 22.316L21.8652 21.208C22.3105 20.7633 22.7878 20.3713 23.2973 20.0991C23.8296 19.7822 24.41 19.6 25.0535 19.6C25.5417 19.6 26.024 19.7042 26.5088 19.9025C26.9694 20.091 27.4203 20.3503 27.8725 20.6578L27.8828 20.6648L33.2759 24.4937C33.8531 24.8948 34.3055 25.4027 34.5873 26.0431L34.5956 26.0621L34.6034 26.0815C34.8108 26.6 34.9512 27.1618 34.9512 27.8046C34.9512 28.5738 34.7797 29.3539 34.4273 30.1005C34.2477 30.4806 34.0374 30.8523 33.7898 31.2135C33.7039 31.339 33.6135 31.463 33.5186 31.5855C33.3939 31.7465 33.2614 31.9044 33.1209 32.0593C32.7722 32.4437 32.4041 32.793 32.0147 33.1045C31.3974 33.5985 30.7321 33.9936 30.0129 34.2888C28.8827 34.7592 27.6655 35 26.3721 35C24.5186 35 22.5812 34.5639 20.5865 33.714C18.6208 32.8764 16.669 31.7541 14.7466 30.3544L14.7449 30.3533C12.8226 28.9492 11.0018 27.3954 9.26644 25.6768L9.25805 25.6685C7.5396 23.9333 5.98544 22.1122 4.59669 20.2046L4.59255 20.1991C3.21469 18.2835 2.09202 16.3491 1.26928 14.4122L1.26777 14.4086C0.43496 12.4308 0 10.4951 0 8.61163C0 7.36113 0.220744 6.14913 0.672098 5.01952C1.13118 3.85412 1.85228 2.79844 2.83187 1.87191Z" fill="white"/>
</svg>
