<svg width="22" height="22" viewBox="0 0 22 22" fill="none" xmlns="http://www.w3.org/2000/svg">
<path d="M19.3327 5.65625C16.7995 7.11869 13.9244 7.88489 10.9993 7.87708C8.0743 7.88489 5.19925 7.11869 2.66602 5.65625" stroke="white" stroke-width="2"/>
<path d="M2.66602 16.3678C5.1957 14.9112 8.06359 14.1445 10.9827 14.1445C13.9018 14.1445 16.7697 14.9112 19.2993 16.3678" stroke="white" stroke-width="2"/>
<path d="M9.74935 21C7.58565 18.1151 6.41602 14.6062 6.41602 11C6.41602 7.39383 7.58565 3.88494 9.74935 1" stroke="white" stroke-width="2"/>
<path d="M12.25 1C14.4137 3.88494 15.5833 7.39383 15.5833 11C15.5833 14.6062 14.4137 18.1151 12.25 21" stroke="white" stroke-width="2"/>
<path d="M11 21C16.5228 21 21 16.5228 21 11C21 5.47715 16.5228 1 11 1C5.47715 1 1 5.47715 1 11C1 16.5228 5.47715 21 11 21Z" stroke="white" stroke-width="2"/>
</svg>
