<svg width="32" height="32" viewBox="0 0 32 32" fill="none" xmlns="http://www.w3.org/2000/svg">
<path d="M10.5214 14.7692C7.15982 14.7692 4.43468 12.014 4.43468 8.61538V3.69231C4.43468 3.01268 4.97981 2.46154 5.65202 2.46154H6.86936C7.54158 2.46154 8.0867 1.9104 8.0867 1.23077C8.0867 0.551138 7.54158 0 6.86936 0H5.65202C3.63513 0 2 1.65317 2 3.69231V8.61538C2.00317 11.4378 3.37754 14.0788 5.67637 15.68C7.87513 17.6399 9.18572 20.4234 9.30404 23.3846C9.30404 28.1428 13.1192 32 17.8254 32C22.5317 32 26.3468 28.1428 26.3468 23.3846V21.9815C28.9507 21.3019 30.5164 18.6166 29.8442 15.984C29.1718 13.3514 26.516 11.7684 23.9121 12.448C21.3082 13.1279 19.7425 15.8129 20.4147 18.4455C20.8576 20.1797 22.1969 21.5338 23.9121 21.9815V23.3846C23.9121 26.7833 21.187 29.5385 17.8254 29.5385C14.4639 29.5385 11.7387 26.7833 11.7387 23.3846C11.8631 20.4197 13.183 17.6354 15.3907 15.68C17.6803 14.0731 19.0452 11.4334 19.0428 8.61538V3.69231C19.0428 1.65317 17.4076 0 15.3907 0H14.1734C13.5012 0 12.9561 0.551138 12.9561 1.23077C12.9561 1.9104 13.5012 2.46154 14.1734 2.46154H15.3907C16.063 2.46154 16.6081 3.01268 16.6081 3.69231V8.61538C16.6081 12.014 13.8829 14.7692 10.5214 14.7692ZM25.1295 19.6923C23.7848 19.6923 22.6948 18.5903 22.6948 17.2308C22.6948 15.8713 23.7848 14.7692 25.1295 14.7692C26.4741 14.7692 27.5642 15.8713 27.5642 17.2308C27.5642 18.5903 26.4741 19.6923 25.1295 19.6923Z" fill="white"/>
</svg>
