<svg width="22" height="22" viewBox="0 0 22 22" fill="none" xmlns="http://www.w3.org/2000/svg">
<path d="M1 21V4.75C1 3.75544 1.39509 2.80161 2.09835 2.09835C2.80161 1.39509 3.75544 1 4.75 1H17.25C18.2446 1 19.1984 1.39509 19.9017 2.09835C20.6049 2.80161 21 3.75544 21 4.75V12.25C21 13.2446 20.6049 14.1984 19.9017 14.9017C19.1984 15.6049 18.2446 16 17.25 16H6L1 21Z" stroke="white" stroke-width="2" stroke-linecap="round" stroke-linejoin="round"/>
<path d="M8.5 12.25V7.25C8.5 6.58696 8.76339 5.95107 9.23223 5.48223C9.70107 5.01339 10.337 4.75 11 4.75C11.663 4.75 12.2989 5.01339 12.7678 5.48223C13.2366 5.95107 13.5 6.58696 13.5 7.25V12.25" stroke="white" stroke-width="2" stroke-linecap="round" stroke-linejoin="round"/>
<path d="M13.5 9.75H8.5" stroke="white" stroke-width="2" stroke-linecap="round" stroke-linejoin="round"/>
</svg>
