<svg width="20" height="20" viewBox="0 0 20 20" fill="none" xmlns="http://www.w3.org/2000/svg">
<path d="M3.47869 15.3833C3.99377 14.6567 4.38296 13.8333 4.61801 12.9465C4.64701 12.8376 4.61154 12.7221 4.52787 12.6494L2.29462 10.7079C2.17716 10.6058 2.16108 10.4238 2.25881 10.3027L4.11698 7.9996C4.18659 7.91332 4.20125 7.79337 4.15361 7.69126C3.76669 6.85943 3.23914 6.11708 2.60462 5.49205C2.4842 5.37325 2.2926 5.39019 2.19341 5.52839C0.00224759 8.55127 0.380304 12.8295 3.06761 15.4212C3.18937 15.5383 3.38097 15.5214 3.47882 15.3848L3.47869 15.3833Z" stroke="#2E5F5C" stroke-miterlimit="10"/>
<path d="M16.9046 14.4844C16.2701 13.8594 15.7425 13.117 15.3556 12.2852C15.308 12.1831 15.3226 12.0632 15.3922 11.9769L17.2504 9.67378C17.3481 9.55265 17.3321 9.37069 17.2146 9.26858L14.9813 7.32709C14.8977 7.25436 14.8622 7.13884 14.8912 7.02995C15.1263 6.14315 15.5155 5.31978 16.0305 4.59315C16.1283 4.45508 16.3199 4.43814 16.4418 4.55681C19.1291 7.14852 19.5071 11.4267 17.316 14.4496C17.2166 14.5863 17.025 14.6032 16.9048 14.4859L16.9046 14.4844Z" stroke="#2E5F5C" stroke-miterlimit="10"/>
<path d="M4.52129 3.51549C5.22543 4.05423 6.02205 4.46307 6.87887 4.71249C6.98408 4.74325 7.09527 4.70723 7.16488 4.62095L9.02305 2.31786C9.12078 2.19673 9.29618 2.18123 9.41363 2.28334L11.6469 4.22483C11.7306 4.29757 11.8463 4.31353 11.9445 4.26479C12.7443 3.86895 13.4569 3.32674 14.0557 2.67284C14.1695 2.54875 14.1519 2.34997 14.018 2.24624C11.0883 -0.0451461 6.9645 0.319319 4.48212 3.08901C4.36992 3.2145 4.38749 3.41328 4.51982 3.51562L4.52129 3.51549Z" stroke="#2E5F5C" stroke-miterlimit="10"/>
<path d="M5.44854 17.307C6.04729 16.6531 6.75987 16.1108 7.55967 15.715C7.65785 15.6663 7.77363 15.6822 7.8573 15.755L10.0906 17.6965C10.208 17.7986 10.3834 17.7831 10.4811 17.6619L12.3393 15.3589C12.4089 15.2726 12.5201 15.2365 12.6253 15.2673C13.4821 15.5167 14.2788 15.9256 14.9829 16.4643C15.1167 16.5665 15.1343 16.7653 15.0206 16.8909C12.5382 19.6606 8.41438 20.0251 5.48476 17.7337C5.3523 17.6298 5.33474 17.431 5.44707 17.3071L5.44854 17.307Z" stroke="#2E5F5C" stroke-miterlimit="10"/>
</svg>
