<svg width="50" height="50" viewBox="0 0 50 50" fill="none" xmlns="http://www.w3.org/2000/svg">
<path d="M38.1148 27.8703H33.6705C33.6475 27.8703 33.6295 27.8572 33.6066 27.8572C32.4754 27.8588 31.559 28.7752 31.5574 29.9062C31.5574 29.9095 31.5574 29.9128 31.5574 29.9144C31.5574 31.2717 30.4574 32.3733 29.0984 32.3733C27.7393 32.3733 26.6393 31.2734 26.6393 29.9144C26.6393 29.9112 26.6393 29.9079 26.6393 29.9046C26.6393 28.7735 25.7213 27.8555 24.5902 27.8555C24.5672 27.8555 24.5492 27.867 24.5262 27.8687H22.1377V27.1081C24.7754 26.236 26.6459 23.7919 26.6459 20.9117C26.6459 18.0316 24.7754 15.5875 22.1836 14.7285L22.1377 14.7154V11.8812C22.1377 10.7501 21.2197 9.83214 20.0885 9.83214H2.05738C0.926229 9.83214 0.00819671 10.7501 0.00819671 11.8812V29.8735L0 29.9128V47.9444C0 49.0755 0.918033 49.9934 2.04918 49.9934L38.1131 50C39.2443 49.9984 40.1607 49.082 40.1623 47.951V29.9193C40.1607 28.7883 39.2459 27.8719 38.1148 27.8703ZM4.1082 13.9302H18.041V16.4055C18.041 17.5366 18.959 18.4545 20.0902 18.4545C21.4475 18.4545 22.5492 19.5561 22.5492 20.9134C22.5492 22.2707 21.4475 23.3722 20.0902 23.3722C18.959 23.3722 18.041 24.2902 18.041 25.4213V27.8637H17.2787C16.3984 25.2246 13.9508 23.3558 11.0672 23.3558C8.36721 23.3558 6.04918 24.9934 5.0541 27.3294L5.0377 27.372C4.97049 27.5293 4.93771 27.6998 4.88361 27.8637H4.1082V13.9302ZM4.1 31.9618H6.48852C6.51639 31.9635 6.53934 31.9782 6.56721 31.9782C7.70164 31.9684 8.61803 31.0488 8.62295 29.9144C8.63279 28.567 9.72787 27.4769 11.0787 27.4769C12.4344 27.4769 13.5328 28.5752 13.5344 29.9292C13.5344 31.0603 14.4525 31.9782 15.5836 31.9782C15.6115 31.9782 15.6344 31.9635 15.6623 31.9618H18.0361V32.7257C15.3967 33.606 13.5279 36.0534 13.5279 38.9368C13.5279 41.635 15.1639 43.9512 17.4984 44.9479L17.541 44.9643C17.6984 45.0315 17.8721 45.0659 18.0361 45.12V45.8937H4.10164L4.1 31.9618ZM36.0656 45.9019H22.1328V43.5086C22.1344 43.484 22.1475 43.4627 22.1475 43.4381C22.1377 42.3038 21.2197 41.3875 20.0852 41.3825C18.7328 41.3776 17.6361 40.281 17.6361 38.927C17.6361 37.5713 18.7361 36.4714 20.0918 36.4714C20.0951 36.4714 20.0967 36.4714 20.1 36.4714C21.2311 36.4714 22.1492 35.5534 22.1492 34.4223C22.1492 34.3977 22.1361 34.3764 22.1344 34.3518V31.97H22.9082C23.7836 34.601 26.2246 36.4648 29.1 36.4648C31.9754 36.4648 34.4164 34.601 35.2787 32.0159L35.2918 31.97H36.0656V45.9019ZM47.9508 0H29.9213C28.7902 0 27.8721 0.917973 27.8721 2.04905V6.47826C27.8705 6.50613 27.8557 6.52908 27.8557 6.55695C27.8557 7.68802 28.7738 8.60599 29.9049 8.60599C31.2623 8.60599 32.3639 9.70756 32.3639 11.0648C32.3639 12.4221 31.2623 13.5237 29.9049 13.5237C28.7738 13.5237 27.8557 14.4417 27.8557 15.5727C27.8557 15.6006 27.8705 15.6236 27.8721 15.6514V20.0807C27.8721 21.2117 28.7902 22.1297 29.9213 22.1297H32.7246C33.5967 24.7672 36.041 26.6376 38.9213 26.6376C41.8016 26.6376 44.2459 24.7672 45.1049 22.1756L45.118 22.1297H47.9508C49.082 22.1297 50 21.2117 50 20.0807V2.04905C50 0.917973 49.082 0 47.9508 0ZM45.9016 18.0316H43.4295C42.2984 18.0316 41.3803 18.9496 41.3803 20.0807C41.3803 21.4379 40.2787 22.5395 38.9213 22.5395C37.5639 22.5395 36.4623 21.4379 36.4623 20.0807C36.4623 18.9496 35.5443 18.0316 34.4131 18.0316H31.9705V17.2562C34.6 16.3793 36.4623 13.9384 36.4623 11.0648C36.4623 8.19127 34.6 5.75044 32.0164 4.88656L31.9705 4.87345V4.09809H45.9016V18.0316Z" fill="#2E5F5C"/>
</svg>
