<svg width="40" height="40" viewBox="0 0 40 40" fill="none" xmlns="http://www.w3.org/2000/svg">
<path d="M4 1.5H36C37.3807 1.5 38.5 2.61929 38.5 4V36C38.5 37.3807 37.3807 38.5 36 38.5H4C2.61929 38.5 1.5 37.3807 1.5 36V4C1.5 2.61929 2.61929 1.5 4 1.5Z" stroke="#2E5F5C" stroke-width="3"/>
<path d="M18.0082 27.0082C17.745 27.0097 17.484 26.9593 17.2404 26.8597C16.9967 26.7602 16.7751 26.6135 16.5882 26.4282L10.5882 20.4282C10.4017 20.2417 10.2538 20.0203 10.1529 19.7767C10.0519 19.533 10 19.2719 10 19.0082C10 18.4756 10.2116 17.9648 10.5882 17.5882C10.9648 17.2116 11.4756 17 12.0082 17C12.5408 17 13.0516 17.2116 13.4282 17.5882L18.0082 22.1882L26.5882 13.5882C26.9648 13.2116 27.4756 13 28.0082 13C28.5408 13 29.0516 13.2116 29.4282 13.5882C29.8048 13.9648 30.0164 14.4756 30.0164 15.0082C30.0164 15.5408 29.8048 16.0516 29.4282 16.4282L19.4282 26.4282C19.2413 26.6135 19.0197 26.7602 18.776 26.8597C18.5323 26.9593 18.2714 27.0097 18.0082 27.0082Z" fill="#2E5F5C"/>
</svg>
