<svg width="36" height="40" viewBox="0 0 36 40" fill="none" xmlns="http://www.w3.org/2000/svg">
<path d="M17.3703 5C7.79183 5 0 12.85 0 22.5C0 32.15 7.79183 40 17.3703 40C26.9488 40 34.7406 32.15 34.7406 22.5C34.7406 12.85 26.9488 5 17.3703 5ZM17.3703 36.25C9.85146 36.25 3.72221 30.075 3.72221 22.5C3.72221 14.925 9.85146 8.75 17.3703 8.75C24.8892 8.75 31.0184 14.925 31.0184 22.5C31.0184 30.075 24.8892 36.25 17.3703 36.25ZM9.30553 1.875C9.30553 0.85 10.1492 0 11.1666 0H23.574C24.5914 0 25.4351 0.85 25.4351 1.875C25.4351 2.9 24.5914 3.75 23.574 3.75H11.1666C10.1492 3.75 9.30553 2.9 9.30553 1.875ZM19.2314 15V22.5C19.2314 23.525 18.3877 24.375 17.3703 24.375C16.3529 24.375 15.5092 23.525 15.5092 22.5V15C15.5092 13.975 16.3529 13.125 17.3703 13.125C18.3877 13.125 19.2314 13.975 19.2314 15ZM35.4603 10.675C35.0881 11.05 34.6166 11.225 34.1451 11.225C33.6736 11.225 33.2021 11.05 32.8299 10.675L29.1077 6.925C28.3881 6.2 28.3881 5 29.1077 4.275C29.8273 3.55 31.0184 3.55 31.7381 4.275L35.4603 8.025C36.1799 8.75 36.1799 9.95 35.4603 10.675Z" fill="#2E5F5C"/>
</svg>
