<svg width="31" height="44" viewBox="0 0 31 44" fill="none" xmlns="http://www.w3.org/2000/svg">
<path d="M24.5 6.61538H6.5C3.95 6.61538 2 4.61538 2 2H29C29 4.61538 27.05 6.61538 24.5 6.61538Z" stroke="#2E5F5C" stroke-width="3" stroke-miterlimit="10" stroke-linecap="round" stroke-linejoin="round"/>
<path d="M6.5 37.3848H24.5C27.05 37.3848 29 39.3848 29 42.0002H2C2 39.3848 3.95 37.3848 6.5 37.3848Z" stroke="#2E5F5C" stroke-width="3" stroke-miterlimit="10" stroke-linecap="round" stroke-linejoin="round"/>
<path d="M26.0012 37.3845V31.2306C26.0012 30.3075 25.5512 29.3845 24.8012 28.7691L19.2512 24.4614C17.6012 23.2306 17.6012 20.7691 19.2512 19.5383L24.8012 15.2306C25.5512 14.6152 26.0012 13.6922 26.0012 12.7691V6.61523" stroke="#2E5F5C" stroke-width="3" stroke-miterlimit="10" stroke-linecap="round" stroke-linejoin="round"/>
<path d="M5 6.61523V12.7691C5 13.6922 5.45 14.6152 6.2 15.2306L11.75 19.5383C13.4 20.7691 13.4 23.2306 11.75 24.4614L6.2 28.7691C5.45 29.3845 5 30.3075 5 31.2306V37.3845" stroke="#2E5F5C" stroke-width="3" stroke-miterlimit="10" stroke-linecap="round" stroke-linejoin="round"/>
<path d="M8 37.3847L15.5 29.6924L23 37.3847H8Z" stroke="#2E5F5C" stroke-width="3" stroke-miterlimit="10" stroke-linecap="round" stroke-linejoin="round"/>
<path d="M15.5 15.8465L11 12.7695H20L15.5 15.8465Z" stroke="#2E5F5C" stroke-width="3" stroke-miterlimit="10" stroke-linecap="round" stroke-linejoin="round"/>
</svg>
