<svg width="35" height="36" viewBox="0 0 35 36" fill="none" xmlns="http://www.w3.org/2000/svg">
<path d="M14.8813 35.4561C13.9068 35.4561 12.9436 35.3654 11.9918 35.1841C11.0399 34.9801 10.1164 34.6968 9.22123 34.3342C8.32605 33.9716 7.48185 33.5184 6.68865 32.9745C5.87279 32.4306 5.11358 31.8187 4.41103 31.1388C3.73114 30.4362 3.11925 29.677 2.57534 28.8612C2.03143 28.068 1.57817 27.2238 1.21556 26.3286C0.852957 25.4334 0.569671 24.5099 0.365705 23.558C0.184402 22.6062 0.09375 21.643 0.09375 20.6685C0.09375 19.6714 0.184402 18.6968 0.365705 17.745C0.569671 16.7932 0.852957 15.8753 1.21556 14.9915C1.57817 14.1076 2.03143 13.2578 2.57534 12.4419C3.11925 11.6487 3.73114 10.9008 4.41103 10.1983C5.11358 9.49571 5.87279 8.87248 6.68865 8.32858C7.48185 7.80733 8.32605 7.35974 9.22123 6.9858C10.1164 6.61186 11.0399 6.33424 11.9918 6.15294C12.9436 5.97163 13.9068 5.88098 14.8813 5.88098C15.1306 5.88098 15.3402 5.96597 15.5102 6.13594C15.6802 6.30591 15.7651 6.50421 15.7651 6.73084V19.7847H28.819C29.0456 19.7847 29.2439 19.8697 29.4139 20.0396C29.5838 20.2096 29.6688 20.4192 29.6688 20.6685C29.6688 21.643 29.5782 22.6062 29.3969 23.558C29.2156 24.5099 28.9379 25.4334 28.564 26.3286C28.1901 27.2238 27.7425 28.068 27.2212 28.8612C26.6773 29.677 26.0541 30.4362 25.3515 31.1388C24.649 31.8187 23.9011 32.4306 23.1079 32.9745C22.2921 33.5184 21.4422 33.9716 20.5583 34.3342C19.6745 34.6968 18.7566 34.9801 17.8048 35.1841C16.853 35.3654 15.8785 35.4561 14.8813 35.4561ZM14.0314 7.64869C12.3317 7.762 10.734 8.18127 9.23823 8.90648C7.76514 9.60903 6.47902 10.5495 5.37987 11.728C4.28072 12.9065 3.41386 14.2549 2.7793 15.7733C2.14474 17.3144 1.82746 18.9461 1.82746 20.6685C1.82746 22.4589 2.1674 24.1473 2.84729 25.7337C3.54984 27.3201 4.49035 28.7025 5.66882 29.881C6.84729 31.0595 8.22973 32 9.81613 32.7025C11.4025 33.3824 13.0909 33.7223 14.8813 33.7223C16.6037 33.7223 18.2354 33.4051 19.7765 32.7705C21.2949 32.1359 22.6433 31.2691 23.8218 30.1699C25.0003 29.0708 25.9408 27.7847 26.6433 26.3116C27.3685 24.8158 27.7878 23.2181 27.9011 21.5184H14.8813C14.6547 21.5184 14.4564 21.4334 14.2864 21.2634C14.1164 21.0934 14.0314 20.8951 14.0314 20.6685V7.64869ZM32.2864 18.051H18.3827C18.1334 18.051 17.9238 17.966 17.7538 17.796C17.5838 17.626 17.4988 17.4164 17.4988 17.1671V3.26342C17.4988 3.01413 17.5838 2.8045 17.7538 2.63453C17.9238 2.46455 18.1334 2.37957 18.3827 2.37957C19.3572 2.37957 20.3204 2.48155 21.2722 2.68552C22.2241 2.86682 23.1419 3.13877 24.0258 3.50138C24.9096 3.86399 25.7595 4.31724 26.5753 4.86115C27.3912 5.40506 28.1391 6.02829 28.819 6.73084C29.5215 7.41073 30.1447 8.1586 30.6887 8.97447C31.2326 9.79033 31.6858 10.6402 32.0484 11.524C32.411 12.4079 32.683 13.3257 32.8643 14.2776C33.0683 15.2294 33.1702 16.1926 33.1702 17.1671C33.1702 17.4164 33.0853 17.626 32.9153 17.796C32.7453 17.966 32.5357 18.051 32.2864 18.051ZM19.2326 16.3172H31.4025C31.2892 14.6855 30.8926 13.1558 30.2127 11.728C29.5555 10.3002 28.683 9.04246 27.5952 7.95464C26.5073 6.86682 25.2496 5.9943 23.8218 5.33707C22.394 4.65719 20.8643 4.26059 19.2326 4.14727V16.3172Z" fill="white"/>
</svg>
