<svg width="35" height="36" viewBox="0 0 35 36" fill="none" xmlns="http://www.w3.org/2000/svg">
<path d="M30.553 8.12506C30.553 8.01175 30.5303 7.90977 30.485 7.81912C30.4396 7.72846 30.383 7.63781 30.315 7.54716L24.06 1.3262C23.9921 1.25821 23.9071 1.20155 23.8051 1.15623C23.7031 1.1109 23.5955 1.08824 23.4821 1.08824H6.17902C5.7031 1.08824 5.29517 1.25254 4.95523 1.58115C4.61528 1.90977 4.44531 2.31203 4.44531 2.78796V34.1647C4.44531 34.6406 4.61528 35.0486 4.95523 35.3885C5.29517 35.7285 5.7031 35.8984 6.17902 35.8984H28.8193C29.2952 35.8984 29.7031 35.7285 30.043 35.3885C30.383 35.0486 30.553 34.6406 30.553 34.1647V8.12506ZM24.298 3.87577L27.7654 7.3092H24.4C24.3773 7.3092 24.3547 7.30354 24.332 7.2922C24.3093 7.28087 24.298 7.26388 24.298 7.24121V3.87577ZM28.9212 34.1647C28.9212 34.1874 28.9099 34.2101 28.8872 34.2327C28.8646 34.2554 28.8419 34.2667 28.8193 34.2667H6.17902C6.15636 34.2667 6.1337 34.2554 6.11103 34.2327C6.08837 34.2101 6.07704 34.1874 6.07704 34.1647V2.78796C6.07704 2.76529 6.08837 2.74829 6.11103 2.73696C6.1337 2.72563 6.15636 2.71997 6.17902 2.71997H22.6663V7.24121C22.6663 7.71713 22.8362 8.1194 23.1762 8.44801C23.5161 8.77662 23.9241 8.94093 24.4 8.94093H28.9212V34.1647ZM24.7059 12.2384H10.2923C10.0657 12.2384 9.87307 12.3177 9.71443 12.4763C9.55579 12.635 9.47647 12.8276 9.47647 13.0542C9.47647 13.2809 9.55579 13.4735 9.71443 13.6321C9.87307 13.7908 10.0657 13.8701 10.2923 13.8701H24.7059C24.9326 13.8701 25.1252 13.7908 25.2838 13.6321C25.4425 13.4735 25.5218 13.2809 25.5218 13.0542C25.5218 12.8276 25.4425 12.635 25.2838 12.4763C25.1252 12.3177 24.9326 12.2384 24.7059 12.2384ZM24.7059 17.1676H10.2923C10.0657 17.1676 9.87307 17.2469 9.71443 17.4055C9.55579 17.5642 9.47647 17.7455 9.47647 17.9494C9.47647 18.1761 9.55579 18.3687 9.71443 18.5273C9.87307 18.686 10.0657 18.7653 10.2923 18.7653H24.7059C24.9326 18.7653 25.1252 18.686 25.2838 18.5273C25.4425 18.3687 25.5218 18.1761 25.5218 17.9494C25.5218 17.7455 25.4425 17.5642 25.2838 17.4055C25.1252 17.2469 24.9326 17.1676 24.7059 17.1676ZM24.7059 22.0627H10.2923C10.0657 22.0627 9.87307 22.1421 9.71443 22.3007C9.55579 22.4593 9.47647 22.652 9.47647 22.8786C9.47647 23.1052 9.55579 23.2979 9.71443 23.4565C9.87307 23.6152 10.0657 23.6945 10.2923 23.6945H24.7059C24.9326 23.6945 25.1252 23.6152 25.2838 23.4565C25.4425 23.2979 25.5218 23.1052 25.5218 22.8786C25.5218 22.652 25.4425 22.4593 25.2838 22.3007C25.1252 22.1421 24.9326 22.0627 24.7059 22.0627ZM17.4991 26.9919H10.2923C10.0657 26.9919 9.87307 27.0712 9.71443 27.2299C9.55579 27.3885 9.47647 27.5812 9.47647 27.8078C9.47647 28.0344 9.55579 28.227 9.71443 28.3857C9.87307 28.5443 10.0657 28.6236 10.2923 28.6236H17.4991C17.7258 28.6236 17.9184 28.5443 18.077 28.3857C18.2357 28.227 18.315 28.0344 18.315 27.8078C18.315 27.5812 18.2357 27.3885 18.077 27.2299C17.9184 27.0712 17.7258 26.9919 17.4991 26.9919Z" fill="white"/>
</svg>
