<svg width="23" height="34" viewBox="0 0 23 34" fill="none" xmlns="http://www.w3.org/2000/svg">
<path d="M11.18 1C10.0227 1 8.91283 1.45974 8.09449 2.27808C7.27614 3.09642 6.81641 4.20633 6.81641 5.36364V17C6.81641 18.1573 7.27614 19.2672 8.09449 20.0856C8.91283 20.9039 10.0227 21.3636 11.18 21.3636C12.3374 21.3636 13.4473 20.9039 14.2656 20.0856C15.0839 19.2672 15.5437 18.1573 15.5437 17V5.36364C15.5437 4.20633 15.0839 3.09642 14.2656 2.27808C13.4473 1.45974 12.3374 1 11.18 1Z" stroke="white" stroke-width="2" stroke-linecap="round" stroke-linejoin="round"/>
<path d="M21.3636 14.0898V16.9989C21.3636 19.6993 20.2909 22.2891 18.3814 24.1986C16.472 26.108 13.8822 27.1808 11.1818 27.1808C8.48143 27.1808 5.89165 26.108 3.98219 24.1986C2.07272 22.2891 1 19.6993 1 16.9989V14.0898" stroke="white" stroke-width="2" stroke-linecap="round" stroke-linejoin="round"/>
<path d="M11.1836 27.1836V33.0018" stroke="white" stroke-width="2" stroke-linecap="round" stroke-linejoin="round"/>
<path d="M5.36328 33H16.9996" stroke="white" stroke-width="2" stroke-linecap="round" stroke-linejoin="round"/>
</svg>
