<svg width="35" height="35" viewBox="0 0 35 35" fill="none" xmlns="http://www.w3.org/2000/svg">
<path d="M17.4997 5.86207C23.9747 5.86207 29.2239 11.1112 29.2239 17.5862V31.6552C29.2239 32.9502 28.1741 34 26.879 34H8.12042C6.82542 34 5.77559 32.9502 5.77559 31.6552V17.5862C5.77559 11.1112 11.0247 5.86207 17.4997 5.86207ZM17.4997 5.86207V0M9.29283 26.9655H25.7066M1.08594 18.7586V28.1379M33.9135 18.7586V28.1379M12.8101 22.2759C11.5151 22.2759 10.4652 21.226 10.4652 19.931C10.4652 18.636 11.5151 17.5862 12.8101 17.5862C14.1051 17.5862 15.1549 18.636 15.1549 19.931C15.1549 21.226 14.1051 22.2759 12.8101 22.2759ZM22.1894 22.2759C20.8944 22.2759 19.8446 21.226 19.8446 19.931C19.8446 18.636 20.8944 17.5862 22.1894 17.5862C23.4844 17.5862 24.5342 18.636 24.5342 19.931C24.5342 21.226 23.4844 22.2759 22.1894 22.2759Z" stroke="white" stroke-width="2"/>
</svg>
