<svg width="20" height="32" viewBox="0 0 20 32" fill="none" xmlns="http://www.w3.org/2000/svg">
<path d="M18.1516 10.3705H15.9338V6.42016C15.9401 2.87931 13.0608 0 9.51998 0C5.97913 0 3.09982 2.87931 3.09982 6.42016V10.3705H0.888364C0.396928 10.3705 0 10.7675 0 11.2589V17.4208C0 22.3729 3.79917 26.4493 8.63162 26.8966V30.2233H6.60917C6.11774 30.2233 5.72081 30.6202 5.72081 31.1116C5.72081 31.6031 6.11774 32 6.60917 32H12.4308C12.9222 32 13.3192 31.6031 13.3192 31.1116C13.3192 30.6202 12.9222 30.2233 12.4308 30.2233H10.4083V26.9029C15.2408 26.4556 19.04 22.3729 19.04 17.4271V11.2652C19.0463 10.7675 18.643 10.3705 18.1516 10.3705ZM4.88285 15.6566H6.30045C6.79189 15.6566 7.18882 15.2597 7.18882 14.7683C7.18882 14.2768 6.79189 13.8799 6.30045 13.8799H4.88285V12.7836H6.30045C6.79189 12.7836 7.18882 12.3867 7.18882 11.8953C7.18882 11.4038 6.79189 11.0069 6.30045 11.0069H4.88285V9.91061H6.30045C6.79189 9.91061 7.18882 9.51368 7.18882 9.02225C7.18882 8.53081 6.79189 8.13389 6.30045 8.13389H4.88285V7.03761H6.30045C6.79189 7.03761 7.18882 6.64068 7.18882 6.14924C7.18882 5.65781 6.79189 5.26088 6.30045 5.26088H5.04036C5.5633 3.26994 7.37153 1.78933 9.52628 1.78933C11.681 1.78933 13.4893 3.26363 14.0122 5.26088H12.7521C12.2607 5.26088 11.8638 5.65781 11.8638 6.14924C11.8638 6.64068 12.2607 7.03761 12.7521 7.03761H14.1697V8.13389H12.7521C12.2607 8.13389 11.8638 8.53081 11.8638 9.02225C11.8638 9.51368 12.2607 9.91061 12.7521 9.91061H14.1697V11.0069H12.7521C12.2607 11.0069 11.8638 11.4038 11.8638 11.8953C11.8638 12.3867 12.2607 12.7836 12.7521 12.7836H14.1697V13.8799H12.7521C12.2607 13.8799 11.8638 14.2768 11.8638 14.7683C11.8638 15.2597 12.2607 15.6566 12.7521 15.6566H14.1697V16.7529H12.7521C12.2607 16.7529 11.8638 17.1498 11.8638 17.6413C11.8638 18.1327 12.2607 18.5296 12.7521 18.5296H14.0122C13.4893 20.5206 11.681 21.9949 9.52628 21.9949C7.37153 21.9949 5.5633 20.5206 5.04036 18.5296H6.30045C6.79189 18.5296 7.18882 18.1327 7.18882 17.6413C7.18882 17.1498 6.79189 16.7529 6.30045 16.7529H4.88285V15.6566ZM17.2758 17.4208H17.2632C17.2632 21.6925 13.7917 25.164 9.51998 25.164C5.24828 25.164 1.77673 21.6925 1.77673 17.4208V12.1473H3.10612V17.3577C3.10612 20.8986 5.98543 23.7779 9.52628 23.7779C13.0671 23.7779 15.9464 20.8986 15.9464 17.3577V12.1473H17.2758V17.4208Z" fill="white"/>
</svg>
